<?xml version="1.0" standalone="no"?>
<!DOCTYPE svg PUBLIC "-//W3C//DTD SVG 20010904//EN"
 "http://www.w3.org/TR/2001/REC-SVG-20010904/DTD/svg10.dtd">
<svg version="1.0" xmlns="http://www.w3.org/2000/svg"
 width="512.000000pt" height="512.000000pt" viewBox="0 0 512.000000 512.000000"
 preserveAspectRatio="xMidYMid meet">

<g transform="translate(0.000000,512.000000) scale(0.100000,-0.100000)"
fill="#000000" stroke="none">
<path d="M947 5106 c-81 -29 -138 -86 -165 -165 -8 -24 -12 -152 -12 -425 0
-372 1 -393 21 -436 44 -97 113 -141 234 -149 l80 -6 5 -278 c5 -278 5 -279
29 -298 13 -11 39 -19 59 -19 33 0 55 19 337 300 l301 300 479 0 c443 0 483 2
520 19 53 24 103 75 129 131 20 43 21 60 21 445 0 400 0 400 -23 445 -35 66
-79 107 -139 130 -52 19 -78 20 -946 20 -722 -1 -899 -3 -930 -14z m1823 -171
c48 -25 52 -55 48 -437 l-3 -346 -24 -26 -24 -25 -503 -3 -504 -3 -240 -240
-240 -240 0 208 c0 130 -4 216 -11 229 -18 34 -70 48 -179 48 -94 0 -103 2
-125 25 l-25 24 0 371 0 372 29 29 29 29 872 0 c756 0 875 -2 900 -15z"/>
<path d="M1110 4695 l0 -85 170 0 170 0 0 85 0 85 -170 0 -170 0 0 -85z"/>
<path d="M1620 4695 l0 -85 515 0 516 0 -3 83 -3 82 -512 3 -513 2 0 -85z"/>
<path d="M1110 4355 l0 -85 255 0 255 0 0 85 0 85 -255 0 -255 0 0 -85z"/>
<path d="M1790 4355 l0 -85 85 0 85 0 0 85 0 85 -85 0 -85 0 0 -85z"/>
<path d="M2137 4433 c-4 -3 -7 -42 -7 -85 l0 -78 85 0 85 0 0 85 0 85 -78 0
c-43 0 -82 -3 -85 -7z"/>
<path d="M2477 4434 c-4 -4 -7 -43 -7 -86 l0 -78 90 0 91 0 -3 83 -3 82 -80 3
c-45 1 -84 0 -88 -4z"/>
<path d="M4235 5106 c-184 -45 -347 -214 -385 -401 -27 -132 15 -308 96 -404
14 -18 25 -33 23 -35 -2 -1 -33 -10 -68 -20 -84 -22 -137 -55 -200 -121 -88
-92 -120 -195 -121 -378 0 -96 18 -141 62 -156 21 -7 254 -11 710 -11 724 0
731 0 757 48 14 26 14 222 1 293 -31 161 -179 308 -337 334 l-42 7 45 66 c134
200 107 467 -64 639 -127 126 -310 180 -477 139z m200 -170 c28 -7 64 -20 80
-29 52 -26 116 -96 143 -155 23 -49 27 -71 27 -147 0 -107 -22 -163 -95 -235
-72 -73 -128 -95 -235 -95 -76 0 -98 4 -147 27 -171 80 -242 276 -162 449 69
148 234 227 389 185z m367 -869 c100 -49 153 -143 146 -259 l-3 -53 -595 0
-595 0 3 74 c5 141 79 235 205 261 23 5 209 8 412 7 l370 -2 57 -28z"/>
<path d="M4244 3315 c-242 -53 -422 -293 -400 -536 9 -103 44 -191 112 -286
15 -21 14 -21 -36 -32 -143 -31 -272 -148 -315 -287 -22 -69 -31 -270 -16
-317 24 -71 -11 -68 777 -65 l706 3 24 28 c22 26 24 36 24 142 0 63 -5 138
-11 167 -34 160 -156 286 -314 325 l-65 16 29 36 c65 83 101 192 101 308 0
235 -157 435 -389 494 -85 22 -141 23 -227 4z m216 -177 c132 -41 230 -179
230 -323 0 -95 -30 -167 -99 -236 -76 -76 -145 -102 -256 -97 -96 4 -158 31
-223 96 -126 126 -131 329 -12 465 85 97 229 135 360 95z m325 -852 c101 -43
156 -126 163 -248 l5 -78 -599 2 -599 3 3 73 c1 40 8 88 16 106 21 51 76 107
131 132 50 24 52 24 448 24 325 0 404 -3 432 -14z"/>
<path d="M2628 3030 l-498 -208 -184 -4 c-179 -3 -185 -4 -210 -27 l-26 -24
-2 -231 -3 -231 -232 -3 c-128 -1 -233 0 -233 3 0 3 15 28 34 55 103 150 117
344 37 506 -74 149 -202 247 -367 281 -262 53 -534 -130 -590 -399 -31 -145 4
-289 102 -425 l16 -23 -59 0 c-183 0 -355 -140 -398 -324 -11 -47 -15 -144
-15 -434 l0 -374 29 -29 29 -29 141 0 140 0 3 -531 3 -531 28 -24 28 -24 450
0 c304 0 457 4 471 11 48 26 48 20 48 928 l0 850 400 3 399 3 23 23 c21 20 23
34 28 146 l5 124 454 -189 c249 -104 466 -189 482 -189 18 0 40 10 54 25 l25
24 0 716 0 716 -25 24 c-16 17 -35 25 -57 24 -19 0 -247 -90 -530 -209z m440
-828 l-3 -279 -422 176 -423 176 0 200 0 200 423 176 422 175 3 -272 c1 -150
1 -398 0 -552z m-2073 748 c71 -32 127 -86 163 -155 23 -44 27 -62 27 -145 0
-82 -4 -103 -26 -150 -34 -72 -89 -126 -166 -162 -110 -52 -240 -38 -342 36
-76 56 -113 117 -131 215 -20 111 14 215 96 298 101 100 246 125 379 63z
m1050 -475 l0 -170 -82 -3 -83 -3 0 176 0 176 83 -3 82 -3 0 -170z m5 -430 l0
-85 -399 0 -400 0 -28 -24 -28 -24 -3 -871 -2 -871 -125 0 -125 0 0 510 0 510
-85 0 -85 0 0 -510 0 -510 -130 0 -130 0 0 855 0 855 -85 0 -85 0 0 -300 0
-300 -86 0 -85 0 3 333 3 332 29 53 c32 57 79 98 135 118 28 10 218 13 874 14
l837 0 0 -85z"/>
<path d="M4284 1530 c-281 -41 -478 -302 -436 -578 13 -81 53 -178 97 -237
l27 -34 -29 -6 c-197 -44 -326 -178 -353 -367 -23 -153 -7 -273 38 -297 14 -8
240 -11 727 -11 l707 0 29 29 c29 29 29 31 29 145 0 63 -5 139 -11 168 -15 73
-63 159 -118 213 -47 47 -171 115 -209 115 -49 0 -54 10 -23 49 126 161 136
402 23 577 -110 169 -306 262 -498 234z m193 -192 c79 -29 162 -112 191 -191
46 -123 19 -259 -69 -352 -170 -180 -452 -132 -557 94 -35 75 -37 192 -5 263
42 93 113 161 201 193 59 22 172 19 239 -7z m324 -851 c91 -45 140 -125 147
-240 l5 -77 -599 2 -599 3 2 68 c4 117 53 198 148 243 l50 24 405 -2 c366 -3
408 -5 441 -21z"/>
</g>
</svg>
