<?xml version="1.0" standalone="no"?>
<!DOCTYPE svg PUBLIC "-//W3C//DTD SVG 20010904//EN"
 "http://www.w3.org/TR/2001/REC-SVG-20010904/DTD/svg10.dtd">
<svg version="1.0" xmlns="http://www.w3.org/2000/svg"
 width="512.000000pt" height="512.000000pt" viewBox="0 0 512.000000 512.000000"
 preserveAspectRatio="xMidYMid meet">

<g transform="translate(0.000000,512.000000) scale(0.100000,-0.100000)"
fill="#000000" stroke="none">
<path d="M2045 4770 c-946 -80 -1737 -745 -1970 -1655 -51 -200 -68 -342 -68
-555 0 -445 121 -854 362 -1216 358 -540 903 -885 1546 -979 160 -24 446 -24
610 -1 898 129 1625 783 1845 1660 46 182 63 330 63 536 0 264 -31 460 -111
705 -45 138 -177 419 -224 478 l-23 28 -100 -82 c-55 -45 -132 -111 -171 -146
l-72 -63 63 -124 c69 -136 123 -289 157 -441 19 -86 22 -131 22 -330 1 -202
-2 -244 -22 -343 -79 -392 -288 -759 -574 -1010 -229 -201 -495 -335 -797
-399 -117 -25 -143 -27 -361 -27 -207 0 -248 2 -340 22 -630 137 -1128 574
-1329 1168 -73 218 -85 296 -85 564 0 268 12 346 85 564 175 517 588 930 1105
1105 214 72 305 86 569 86 201 -1 243 -4 335 -23 210 -46 435 -136 597 -239
73 -46 202 -144 227 -172 11 -11 23 -21 29 -21 5 0 53 31 106 69 53 38 138 95
189 126 l93 58 -48 49 c-193 198 -534 404 -830 501 -279 91 -601 130 -878 107z"/>
</g>
</svg>
