<?xml version="1.0" standalone="no"?>
<!DOCTYPE svg PUBLIC "-//W3C//DTD SVG 20010904//EN"
 "http://www.w3.org/TR/2001/REC-SVG-20010904/DTD/svg10.dtd">
<svg version="1.0" xmlns="http://www.w3.org/2000/svg"
 width="512.000000pt" height="512.000000pt" viewBox="0 0 512.000000 512.000000"
 preserveAspectRatio="xMidYMid meet">

<g transform="translate(0.000000,512.000000) scale(0.100000,-0.100000)"
fill="#000000" stroke="none">
<path d="M320 4947 c-49 -16 -133 -102 -148 -153 -18 -60 -18 -4408 0 -4468
16 -55 99 -138 154 -154 32 -9 456 -12 1836 -12 2026 0 1853 -7 1931 80 24 26
49 66 55 88 9 29 12 341 12 1238 l0 1198 379 381 c425 427 416 416 416 555 -1
89 -25 148 -86 209 -63 62 -120 85 -214 86 -121 0 -149 -17 -336 -202 l-159
-157 0 559 c0 402 -3 569 -12 597 -6 22 -31 62 -55 88 -78 87 96 80 -1937 79
-1283 -1 -1811 -4 -1836 -12z m3655 -172 c24 -23 25 -29 25 -160 l0 -135
-1840 0 -1840 0 0 135 c0 131 1 137 25 160 l24 25 1791 0 1791 0 24 -25z m25
-878 l0 -422 -240 -240 -240 -240 0 120 0 120 -422 422 -423 423 -937 0 -938
0 0 -1760 0 -1760 1360 0 1360 0 0 783 0 782 240 240 240 240 0 -1118 0 -1118
-25 -24 -24 -25 -1791 0 -1791 0 -24 25 -25 24 0 1976 0 1975 1840 0 1840 0 0
-423z m-1440 -377 l0 -400 400 0 400 0 0 -143 0 -142 -635 -635 -635 -635
-106 -318 c-58 -175 -104 -321 -101 -324 3 -3 149 43 324 101 l318 106 417
417 418 418 0 -623 0 -622 -1200 0 -1200 0 0 1600 0 1600 800 0 800 0 0 -400z
m2168 300 c64 -39 91 -125 58 -188 -8 -15 -44 -56 -80 -92 l-66 -65 -102 103
-103 102 60 61 c33 34 74 70 90 80 39 25 101 24 143 -1z m-1743 -280 l260
-260 -263 0 -262 0 0 260 c0 143 1 260 3 260 1 0 119 -117 262 -260z m1440
-80 l100 -100 -943 -943 -942 -942 -102 103 -103 102 940 940 c517 517 942
940 945 940 3 0 50 -45 105 -100z m-2000 -2000 l99 -100 -44 -45 c-40 -40 -58
-49 -194 -95 -82 -27 -151 -48 -153 -47 -1 2 20 70 47 152 44 131 55 155 92
192 23 24 45 43 48 43 3 0 50 -45 105 -100z"/>
<path d="M443 4710 c-47 -20 -57 -87 -18 -125 69 -70 180 29 118 104 -21 24
-68 35 -100 21z"/>
<path d="M665 4695 c-50 -49 -15 -135 55 -135 41 0 80 39 80 80 0 41 -39 80
-80 80 -19 0 -40 -9 -55 -25z"/>
<path d="M905 4695 c-50 -49 -15 -135 55 -135 41 0 80 39 80 80 0 41 -39 80
-80 80 -19 0 -40 -9 -55 -25z"/>
<path d="M1200 3520 l0 -80 560 0 560 0 0 80 0 80 -560 0 -560 0 0 -80z"/>
<path d="M1200 3040 l0 -80 560 0 560 0 0 80 0 80 -560 0 -560 0 0 -80z"/>
<path d="M1200 2560 l0 -80 760 0 760 0 0 80 0 80 -760 0 -760 0 0 -80z"/>
<path d="M1200 2080 l0 -80 520 0 520 0 0 80 0 80 -520 0 -520 0 0 -80z"/>
<path d="M1200 1600 l0 -80 320 0 320 0 0 80 0 80 -320 0 -320 0 0 -80z"/>
<path d="M1200 1120 l0 -80 240 0 240 0 0 80 0 80 -240 0 -240 0 0 -80z"/>
</g>
</svg>
