<?xml version="1.0" standalone="no"?>
<!DOCTYPE svg PUBLIC "-//W3C//DTD SVG 20010904//EN"
 "http://www.w3.org/TR/2001/REC-SVG-20010904/DTD/svg10.dtd">
<svg version="1.0" xmlns="http://www.w3.org/2000/svg"
 width="512.000000pt" height="512.000000pt" viewBox="0 0 512.000000 512.000000"
 preserveAspectRatio="xMidYMid meet">

<g transform="translate(0.000000,512.000000) scale(0.100000,-0.100000)"
fill="#000000" stroke="none">
<path d="M1025 4700 l-340 -340 0 -330 c0 -357 -1 -351 55 -365 18 -4 34 0 53
15 l27 21 0 274 0 274 284 3 285 3 30 29 c17 17 36 46 41 65 5 20 10 152 10
294 l0 257 1369 0 c1088 0 1371 -3 1379 -13 6 -7 12 -77 14 -160 3 -142 4
-150 27 -168 30 -25 66 -24 91 1 18 18 20 33 20 185 0 176 -5 198 -52 242 -60
56 25 53 -1525 53 l-1427 0 -341 -340z m305 -110 l0 -200 -200 0 c-110 0 -200
3 -200 7 0 10 383 393 392 393 5 0 8 -90 8 -200z"/>
<path d="M1681 4494 c-27 -35 -26 -59 4 -89 l24 -25 821 0 c807 0 820 0 840
20 12 12 20 33 20 54 0 70 49 66 -866 66 l-823 0 -20 -26z"/>
<path d="M4160 4464 c-36 -7 -107 -34 -158 -59 -154 -77 -270 -209 -329 -377
-35 -98 -43 -253 -18 -362 41 -188 176 -362 345 -444 113 -56 183 -72 306 -72
122 0 224 26 326 83 305 170 424 559 269 872 -70 141 -166 236 -306 306 -134
66 -288 85 -435 53z m315 -154 c209 -72 355 -278 355 -498 -1 -234 -165 -447
-391 -507 -117 -31 -278 -13 -383 43 -72 38 -187 155 -220 223 -103 213 -64
451 100 616 68 67 172 124 259 142 73 15 210 6 280 -19z"/>
<path d="M4273 4240 c-26 -11 -43 -40 -43 -74 0 -20 -9 -30 -39 -46 -78 -39
-126 -141 -103 -217 29 -95 91 -144 201 -162 73 -12 94 -27 94 -67 0 -65 -85
-84 -148 -34 -45 35 -63 37 -99 9 -50 -39 -32 -93 50 -145 44 -28 54 -40 54
-63 0 -28 23 -57 50 -62 46 -9 90 30 90 80 0 11 19 30 46 47 95 60 125 174 70
268 -34 58 -93 93 -176 104 -47 7 -68 15 -82 32 -24 30 -23 46 7 75 30 31 78
33 120 5 38 -25 56 -25 89 1 51 40 25 106 -54 139 -25 10 -30 18 -30 45 0 24
-7 39 -26 54 -29 23 -38 24 -71 11z"/>
<path d="M1231 3994 c-24 -31 -25 -35 -9 -69 7 -16 24 -29 47 -36 24 -7 402
-9 1152 -7 1082 3 1118 4 1138 22 26 24 28 77 3 99 -17 16 -112 17 -1165 17
l-1146 0 -20 -26z"/>
<path d="M1259 3592 c-15 -13 -22 -30 -22 -52 0 -22 7 -39 22 -52 22 -17 70
-18 1163 -18 l1139 0 24 25 c14 13 25 33 25 45 0 12 -11 32 -25 45 l-24 25
-1139 0 c-1093 0 -1141 -1 -1163 -18z"/>
<path d="M582 3580 c-116 -31 -206 -84 -298 -175 -141 -139 -199 -278 -199
-475 0 -197 58 -335 199 -476 142 -140 301 -201 500 -192 177 9 322 73 446
198 109 110 175 249 189 397 20 209 -46 398 -189 543 -129 130 -271 191 -460
197 -91 2 -130 -1 -188 -17z m297 -135 c182 -43 329 -186 385 -374 9 -32 16
-91 16 -141 0 -148 -52 -275 -154 -375 -209 -205 -525 -208 -737 -7 -172 162
-215 403 -109 618 108 221 356 336 599 279z"/>
<path d="M701 3354 c-19 -24 -21 -40 -21 -171 0 -140 -1 -146 -25 -175 -35
-42 -35 -114 0 -157 28 -32 84 -56 113 -47 12 4 42 -14 95 -59 85 -71 121 -81
157 -45 41 41 26 77 -68 154 -57 46 -70 63 -75 92 -3 20 -18 51 -32 69 -24 33
-25 39 -25 179 0 133 -2 148 -20 166 -29 29 -74 26 -99 -6z"/>
<path d="M1486 3168 c-21 -30 -20 -61 3 -89 l19 -24 1145 0 c1112 0 1146 1
1166 19 26 24 28 77 3 99 -17 16 -113 17 -1170 17 l-1151 0 -15 -22z"/>
<path d="M4251 3054 l-21 -27 0 -1391 c0 -1069 -3 -1395 -12 -1404 -9 -9 -398
-12 -1689 -12 -1512 0 -1679 2 -1693 16 -14 14 -16 115 -16 969 l0 954 -27 21
c-19 15 -35 19 -53 15 -59 -15 -55 49 -58 -988 -2 -699 0 -963 9 -994 14 -53
68 -109 117 -122 25 -8 587 -11 1727 -11 1622 0 1692 1 1730 19 46 21 79 54
94 94 8 20 11 465 11 1441 0 1356 -1 1414 -18 1429 -29 26 -77 22 -101 -9z"/>
<path d="M4659 2977 c-41 -27 -58 -71 -58 -153 -1 -48 -5 -65 -21 -79 -20 -18
-20 -31 -20 -1146 l0 -1127 90 -181 c96 -194 119 -222 168 -205 22 7 45 43
124 199 l97 190 1 1121 c0 1077 -1 1122 -19 1145 -12 17 -20 48 -24 101 -9
133 -42 158 -200 158 -92 0 -108 -3 -138 -23z m191 -162 l0 -45 -55 0 -55 0 0
45 0 45 55 0 55 0 0 -45z m50 -1220 l0 -1035 -100 0 -100 0 0 1035 0 1035 100
0 100 0 0 -1035z m-50 -1180 c0 -10 -44 -95 -50 -95 -6 0 -50 85 -50 95 0 3
23 5 50 5 28 0 50 -2 50 -5z"/>
<path d="M1496 2759 c-33 -26 -34 -68 -3 -97 l23 -22 1142 0 c1129 0 1142 0
1162 20 11 11 20 33 20 50 0 17 -9 39 -20 50 -20 20 -33 20 -1159 20 -1136 0
-1138 0 -1165 -21z"/>
<path d="M1231 2334 c-24 -31 -25 -35 -9 -69 7 -16 24 -29 47 -36 24 -7 443
-9 1282 -7 1210 3 1248 4 1268 22 26 24 28 77 3 99 -17 16 -121 17 -1295 17
l-1276 0 -20 -26z"/>
<path d="M1470 1997 c-19 -12 -42 -36 -52 -54 -18 -29 -218 -875 -218 -918 1
-36 37 -102 70 -125 31 -22 206 -70 256 -70 36 0 91 25 117 53 l22 25 286
-277 c256 -249 290 -279 331 -289 75 -19 128 -3 190 56 l38 36 27 -26 c43 -40
87 -58 143 -58 66 0 108 18 148 64 32 37 34 37 64 25 64 -26 156 -9 212 40 25
22 48 69 55 110 5 27 12 36 34 42 72 19 137 106 137 182 0 33 4 39 34 53 33
16 36 16 90 -11 47 -23 64 -26 104 -21 80 11 201 45 227 63 36 27 65 86 65
132 0 72 -189 881 -215 922 -28 43 -78 69 -135 69 -63 0 -215 -38 -251 -63
-42 -29 -69 -81 -69 -133 0 -40 -2 -43 -42 -59 -25 -10 -54 -14 -73 -11 -16 3
-97 44 -179 91 -83 46 -172 92 -198 101 -104 34 -212 14 -300 -56 l-37 -30
-235 0 -235 0 -15 29 c-30 57 -78 87 -176 110 -121 28 -178 27 -220 -2z m180
-133 c38 -8 73 -21 79 -28 8 -9 -16 -130 -85 -432 -53 -230 -99 -423 -104
-427 -9 -10 -164 22 -186 37 -12 9 0 72 81 426 52 228 97 421 100 428 6 16 32
15 115 -4z m1874 -1 c15 -50 186 -813 186 -831 0 -11 -8 -23 -17 -25 -98 -27
-166 -38 -174 -30 -13 13 -201 830 -197 852 2 9 27 21 68 32 88 23 127 24 134
2z m-858 -59 c22 -9 100 -52 174 -95 180 -104 229 -114 355 -74 19 6 24 -13
89 -297 38 -167 69 -307 70 -312 0 -5 -20 -18 -47 -30 l-47 -20 -243 242
c-272 271 -303 292 -412 291 -73 0 -116 -15 -189 -63 -126 -84 -205 -105 -276
-76 l-30 12 57 62 c32 34 107 119 168 190 129 149 177 186 245 186 26 0 65 -7
86 -16z m-488 -136 c-23 -29 -87 -98 -140 -154 -114 -117 -118 -132 -61 -195
74 -82 178 -120 276 -99 59 12 158 57 251 114 66 40 108 45 160 21 50 -24 526
-506 526 -533 0 -28 -34 -62 -62 -62 -15 0 -84 62 -223 200 -214 213 -226 221
-272 178 -47 -44 -38 -58 182 -278 178 -179 205 -210 205 -237 0 -36 -20 -55
-56 -56 -21 0 -70 45 -238 212 -222 222 -234 230 -284 195 -16 -11 -22 -25
-22 -51 0 -34 12 -49 160 -198 163 -164 178 -186 144 -219 -38 -38 -60 -24
-244 159 -141 140 -182 175 -203 175 -37 0 -67 -33 -67 -72 0 -27 15 -47 90
-124 103 -105 112 -132 52 -163 -19 -10 -27 -10 -45 2 -12 8 -152 143 -310
299 l-288 283 70 305 c39 168 73 315 76 328 5 22 7 22 186 22 l181 0 -44 -52z"/>
</g>
</svg>
