<?xml version="1.0" standalone="no"?>
<!DOCTYPE svg PUBLIC "-//W3C//DTD SVG 20010904//EN"
 "http://www.w3.org/TR/2001/REC-SVG-20010904/DTD/svg10.dtd">
<svg version="1.0" xmlns="http://www.w3.org/2000/svg"
 width="512.000000pt" height="512.000000pt" viewBox="0 0 512.000000 512.000000"
 preserveAspectRatio="xMidYMid meet">

<g transform="translate(0.000000,512.000000) scale(0.100000,-0.100000)"
fill="#000000" stroke="none">
<path d="M621 5104 c-132 -35 -238 -125 -299 -251 l-37 -78 0 -1895 0 -1895
24 -58 c43 -108 154 -219 255 -255 26 -9 51 -24 53 -32 21 -61 58 -126 95
-166 48 -53 145 -119 186 -129 23 -5 33 -18 56 -69 55 -128 188 -237 324 -265
37 -8 507 -11 1605 -11 1363 0 1560 2 1612 15 163 43 288 167 331 330 9 32 14
110 14 221 0 152 -2 174 -18 195 -25 30 -75 30 -105 0 -21 -20 -22 -33 -27
-204 -5 -164 -7 -187 -28 -229 -30 -60 -89 -119 -150 -149 l-47 -24 -1585 0
-1585 0 -57 28 c-91 45 -149 123 -168 230 -7 34 -9 698 -8 1868 l3 1814 28 57
c16 33 49 76 78 102 91 82 8 77 1236 74 l1091 -3 43 -30 c79 -56 83 -72 90
-385 4 -174 10 -290 18 -315 40 -129 157 -249 289 -298 51 -19 85 -22 339 -27
l281 -5 43 -30 c23 -16 53 -50 66 -74 l23 -44 0 -1062 c0 -1060 0 -1062 21
-1089 26 -33 79 -36 109 -6 20 20 20 33 20 1137 0 1227 2 1180 -61 1304 -21
43 -66 98 -145 179 l-114 118 0 360 c0 325 -2 366 -19 421 -37 118 -128 224
-236 276 -30 14 -58 25 -62 25 -5 0 -22 30 -38 68 -54 126 -185 232 -323 261
-38 8 -501 11 -1610 10 -1328 0 -1565 -2 -1611 -15z m3217 -149 c60 -18 127
-66 160 -115 l23 -35 -1538 -5 c-1444 -5 -1541 -6 -1583 -23 -138 -55 -244
-169 -284 -306 -13 -46 -16 -118 -16 -438 0 -370 1 -384 20 -403 25 -25 71
-26 101 -1 l24 19 5 394 5 393 29 53 c33 60 76 101 139 134 l42 23 1577 3
c1561 2 1577 2 1631 -18 74 -28 130 -79 166 -152 l31 -61 0 -286 0 -285 -272
271 c-250 248 -279 274 -347 307 -40 19 -97 40 -125 46 -35 7 -420 10 -1211 8
l-1160 -3 -75 -37 c-140 -68 -238 -201 -260 -353 -6 -45 -10 -699 -10 -1822 0
-964 -4 -1753 -8 -1753 -20 0 -90 73 -117 121 l-30 54 -5 1363 -5 1364 -28 24
c-34 29 -56 30 -91 3 l-26 -20 0 -1295 c0 -1065 -2 -1294 -13 -1294 -25 0 -92
67 -122 121 l-30 54 -3 1855 c-2 2031 -6 1895 55 1983 32 46 100 95 157 113
33 10 358 13 1592 13 1362 1 1557 -1 1602 -14z m749 -1540 c-1 0 -130 2 -287
5 -270 5 -288 6 -335 28 -65 30 -128 93 -157 156 -22 48 -23 66 -28 331 -3
154 -9 287 -14 295 -5 8 179 -172 407 -400 229 -228 415 -414 414 -415z"/>
<path d="M2615 3168 c-20 -18 -63 -121 -180 -428 -85 -223 -155 -419 -155
-437 0 -22 8 -38 26 -52 56 -44 96 -16 139 96 l31 78 193 0 193 0 33 -84 c34
-86 43 -97 83 -107 32 -9 76 25 80 61 2 18 -50 173 -148 434 -163 435 -177
461 -240 461 -16 0 -41 -10 -55 -22z m123 -411 c34 -90 62 -167 62 -170 0 -4
-58 -7 -130 -7 -71 0 -130 3 -130 7 0 16 124 333 130 333 3 0 34 -73 68 -163z"/>
<path d="M1825 3155 l-25 -24 0 -424 c0 -414 0 -425 21 -451 27 -34 77 -36
107 -3 21 22 22 32 22 205 l0 182 128 0 c121 0 130 1 150 23 39 41 25 97 -29
116 -18 6 -81 11 -140 11 l-109 0 0 120 0 120 134 0 c74 0 142 3 151 6 8 4 23
20 31 36 12 24 13 36 4 58 -18 44 -45 50 -241 50 -178 0 -180 0 -204 -25z"/>
<path d="M3440 3166 c-123 -35 -242 -128 -298 -234 -186 -348 96 -753 488
-701 41 6 93 23 142 47 l76 37 46 -42 c52 -50 90 -56 124 -20 34 36 28 72 -21
124 l-44 46 33 65 c69 137 69 287 0 426 -61 125 -185 225 -316 255 -60 14
-174 12 -230 -3z m237 -157 c154 -58 245 -236 199 -390 -26 -90 -28 -91 -85
-35 -57 56 -97 65 -133 28 -36 -36 -28 -76 25 -130 26 -26 47 -51 47 -55 0 -5
-16 -15 -36 -23 -207 -87 -434 45 -460 268 -5 43 -2 72 15 129 19 61 31 81 79
129 97 97 223 125 349 79z"/>
<path d="M1594 1950 c-26 -10 -54 -48 -54 -71 0 -9 9 -28 21 -43 l20 -26 1295
0 c1281 0 1294 0 1314 20 27 27 26 81 -1 106 -20 18 -58 19 -1298 21 -706 1
-1286 -2 -1297 -7z"/>
<path d="M1563 1464 c-20 -20 -24 -31 -19 -57 3 -18 16 -40 27 -49 20 -17 97
-18 1304 -18 1282 0 1282 0 1309 21 34 27 36 79 4 109 -22 20 -27 20 -1310 20
l-1289 0 -26 -26z"/>
<path d="M1603 1023 c-26 -5 -63 -48 -63 -73 0 -10 9 -29 21 -44 l20 -26 679
0 679 0 20 26 c27 35 26 57 -3 91 l-24 28 -654 1 c-359 1 -663 0 -675 -3z"/>
</g>
</svg>
