<?xml version="1.0" standalone="no"?>
<!DOCTYPE svg PUBLIC "-//W3C//DTD SVG 20010904//EN"
 "http://www.w3.org/TR/2001/REC-SVG-20010904/DTD/svg10.dtd">
<svg version="1.0" xmlns="http://www.w3.org/2000/svg"
 width="512.000000pt" height="512.000000pt" viewBox="0 0 512.000000 512.000000"
 preserveAspectRatio="xMidYMid meet">

<g transform="translate(0.000000,512.000000) scale(0.100000,-0.100000)"
fill="#000000" stroke="none">
<path d="M1208 5096 c-55 -20 -102 -63 -459 -423 -308 -310 -328 -331 -343
-382 -14 -49 -16 -210 -16 -1621 0 -1740 -4 -1632 67 -1705 73 -75 -11 -70
1145 -73 l1037 -2 12 -38 c6 -20 27 -72 47 -115 l35 -77 -52 -54 c-77 -83 -77
-83 96 -258 134 -135 150 -148 182 -148 29 0 45 9 86 50 l51 51 86 -41 c48
-22 100 -43 117 -46 l31 -6 0 -75 c0 -65 3 -77 25 -98 24 -25 25 -25 228 -25
253 0 249 -1 257 115 l5 77 87 32 c47 18 99 41 113 50 l27 18 52 -51 c42 -42
58 -51 86 -51 31 0 49 14 182 147 176 176 178 179 98 267 l-51 55 29 58 c16
32 37 81 46 109 l17 51 75 5 c120 8 118 5 122 253 l3 205 -30 30 c-27 28 -35
30 -99 30 l-70 0 -17 53 c-9 28 -30 80 -47 115 l-30 63 51 54 c80 84 78 90
-81 252 -129 130 -169 163 -203 163 -9 0 -40 -23 -69 -50 -29 -28 -58 -50 -65
-50 -6 0 -31 10 -54 22 -23 12 -71 32 -107 44 l-65 23 -5 1259 -5 1258 -28 42
c-15 23 -46 54 -69 69 -37 25 -52 28 -140 31 l-98 4 0 66 c-1 135 -38 208
-129 255 l-55 27 -1035 0 c-832 -1 -1043 -3 -1073 -14z m2111 -172 l21 -27 -1
-1316 c-1 -724 -4 -1354 -7 -1400 l-7 -84 -65 -22 c-36 -12 -84 -32 -107 -44
-23 -11 -47 -21 -53 -21 -7 0 -10 96 -10 290 l0 291 -25 24 -24 25 -1094 0
c-1092 0 -1094 0 -1121 -21 l-26 -20 0 -672 0 -671 22 -23 21 -23 799 0 798 0
0 -80 0 -80 -926 2 -926 3 -19 24 c-19 23 -19 62 -19 1572 l0 1549 290 0 c316
0 335 3 393 58 65 62 67 71 67 397 l0 295 999 0 1000 0 20 -26z m-2196 -551
c-12 -10 -77 -13 -237 -13 l-221 0 235 235 235 235 3 -222 c2 -201 1 -224 -15
-235z m2539 210 c17 -15 18 -64 18 -1155 l0 -1138 -90 0 -90 0 0 1155 0 1155
72 0 c52 0 76 -4 90 -17z m-1802 -2238 l0 -135 -450 0 -450 0 0 135 0 135 450
0 450 0 0 -135z m1070 0 l0 -135 -452 2 -453 3 -3 119 c-1 66 0 126 2 133 4
10 94 13 456 13 l450 0 0 -135z m752 -279 c5 -79 22 -101 90 -116 67 -14 169
-55 239 -96 32 -19 67 -34 79 -34 11 0 43 21 71 47 l50 47 69 -69 70 -69 -45
-46 c-52 -53 -59 -93 -24 -141 31 -44 76 -150 99 -231 25 -94 42 -108 126
-108 l65 0 -3 -97 -3 -98 -66 -3 c-80 -3 -94 -15 -116 -99 -19 -74 -55 -160
-93 -222 -43 -69 -40 -101 15 -160 l44 -47 -67 -66 -67 -66 -50 44 c-62 55
-83 56 -171 4 -38 -22 -107 -52 -154 -66 -146 -45 -160 -58 -160 -151 l0 -53
-95 0 -95 0 0 61 c0 54 -3 64 -29 90 -16 16 -37 29 -46 29 -35 0 -173 53 -237
91 -87 51 -107 50 -169 -8 l-50 -47 -64 64 c-36 36 -65 69 -65 75 0 6 16 27
36 46 61 58 61 68 1 188 -29 58 -62 138 -72 176 -26 98 -42 113 -124 117 l-66
3 0 95 0 95 67 5 c41 3 73 11 82 20 8 8 31 64 51 124 19 60 49 132 66 159 59
96 58 115 -7 187 l-38 41 67 67 66 66 50 -47 c28 -26 59 -47 70 -47 11 0 62
22 113 49 51 28 129 59 173 71 105 28 125 49 125 131 l0 59 94 0 94 0 4 -64z
m-1822 -146 l0 -130 -450 0 -450 0 0 130 0 130 450 0 450 0 0 -130z m889 1
l-124 -129 -300 2 -300 1 -3 128 -3 127 427 0 427 0 -124 -129z m-889 -421 l0
-130 -450 0 -450 0 0 130 0 130 450 0 450 0 0 -130z m842 73 c-16 -32 -37 -82
-46 -110 l-18 -53 -67 0 c-53 0 -74 -4 -94 -20 -23 -19 -40 -20 -241 -20
l-216 0 0 130 0 130 355 0 355 0 -28 -57z"/>
<path d="M1485 4756 c-25 -25 -25 -26 -25 -225 l0 -200 26 -20 c26 -21 33 -21
751 -21 l724 0 24 25 c25 24 25 25 25 218 0 177 -2 197 -19 218 l-19 24 -731
3 -732 2 -24 -24z m1365 -221 l0 -85 -615 0 -615 0 0 85 0 85 615 0 615 0 0
-85z"/>
<path d="M843 4076 l-28 -24 -3 -182 c-4 -207 1 -263 29 -291 18 -18 35 -19
244 -19 211 0 226 1 245 20 29 29 31 49 28 269 l-3 203 -28 24 c-28 24 -30 24
-242 24 -212 0 -214 0 -242 -24z m357 -246 l0 -110 -110 0 -110 0 0 110 0 110
110 0 110 0 0 -110z"/>
<path d="M1540 4020 c-28 -28 -27 -90 1 -116 20 -18 47 -19 756 -19 l735 0 19
24 c26 32 25 82 -4 109 l-23 22 -732 0 c-719 0 -732 0 -752 -20z"/>
<path d="M1542 3750 c-30 -28 -30 -90 -1 -116 20 -18 47 -19 756 -19 l735 0
19 24 c26 32 25 82 -4 109 l-23 22 -730 0 c-721 0 -731 0 -752 -20z"/>
<path d="M841 3351 c-28 -28 -33 -84 -29 -290 4 -244 -18 -225 267 -229 l219
-3 28 25 29 24 0 227 c0 226 0 227 -24 246 -21 17 -42 19 -247 19 -208 0 -225
-1 -243 -19z m359 -251 l0 -110 -110 0 -110 0 0 110 0 110 110 0 110 0 0 -110z"/>
<path d="M1546 3299 c-35 -27 -36 -86 -3 -117 l23 -22 726 0 c719 0 726 0 752
21 37 29 37 89 0 118 -26 21 -33 21 -749 21 -716 0 -723 0 -749 -21z"/>
<path d="M1547 3029 c-36 -27 -38 -86 -4 -117 l23 -22 730 0 731 0 21 23 c27
29 28 77 3 108 l-19 24 -730 3 c-726 2 -729 2 -755 -19z"/>
<path d="M3410 1757 c-107 -32 -184 -80 -270 -166 -128 -128 -183 -263 -182
-446 1 -174 61 -316 187 -441 254 -252 662 -242 904 23 115 124 165 257 165
428 0 96 -4 121 -30 195 -66 188 -212 335 -397 401 -96 33 -277 37 -377 6z
m295 -151 c180 -48 315 -198 346 -384 32 -194 -76 -404 -253 -489 -188 -92
-383 -62 -535 80 -258 241 -163 669 175 784 78 26 189 30 267 9z"/>
</g>
</svg>
