<?xml version="1.0" standalone="no"?>
<!DOCTYPE svg PUBLIC "-//W3C//DTD SVG 20010904//EN"
 "http://www.w3.org/TR/2001/REC-SVG-20010904/DTD/svg10.dtd">
<svg version="1.0" xmlns="http://www.w3.org/2000/svg"
 width="512.000000pt" height="512.000000pt" viewBox="0 0 512.000000 512.000000"
 preserveAspectRatio="xMidYMid meet">

<g transform="translate(0.000000,512.000000) scale(0.100000,-0.100000)"
fill="#000000" stroke="none">
<path d="M887 5100 c-93 -29 -168 -96 -215 -190 l-27 -55 0 -2295 0 -2295 27
-55 c48 -95 123 -161 219 -191 59 -18 116 -19 1669 -19 1553 0 1610 1 1669 19
110 34 198 122 232 232 18 59 19 127 19 2309 0 2182 -1 2250 -19 2309 -34 110
-122 198 -232 232 -58 18 -110 19 -1284 19 -673 0 -1231 -3 -1240 -6 -8 -4
-23 -20 -31 -36 -13 -25 -13 -35 -3 -59 6 -17 20 -34 30 -39 11 -6 476 -10
1239 -10 1337 0 1258 3 1324 -58 16 -15 37 -45 47 -67 18 -39 19 -121 19
-2285 0 -2164 -1 -2246 -19 -2285 -23 -49 -64 -89 -113 -109 -33 -14 -214 -16
-1638 -16 -1424 0 -1605 2 -1638 16 -49 20 -90 60 -113 109 -18 39 -19 121
-19 2283 0 2461 -4 2279 58 2346 58 61 81 66 365 66 l258 0 24 25 c14 13 25
36 25 50 0 14 -11 37 -25 50 l-24 25 -263 -1 c-227 0 -271 -3 -321 -19z"/>
<path d="M1300 4724 c-161 -43 -261 -174 -261 -339 0 -175 112 -308 290 -346
144 -30 311 60 377 204 60 131 29 293 -76 391 -57 53 -107 80 -178 95 -66 14
-84 13 -152 -5z m135 -145 c155 -42 204 -226 90 -335 -130 -125 -336 -39 -336
141 0 92 48 158 137 190 48 17 59 18 109 4z"/>
<path d="M3045 4715 l-25 -24 0 -301 0 -301 25 -24 c23 -24 29 -25 163 -25
126 0 142 2 166 21 34 27 36 77 3 107 -20 19 -35 22 -116 22 l-92 0 3 63 3 62
85 3 c99 3 120 16 120 72 0 58 -24 73 -125 78 l-85 5 0 58 0 59 93 0 c85 0 96
2 115 23 31 33 29 80 -4 106 -24 19 -40 21 -166 21 -134 0 -140 -1 -163 -25z"/>
<path d="M3642 4717 c-22 -23 -22 -29 -22 -328 l0 -306 23 -21 c29 -27 67 -28
98 -3 21 17 24 29 27 104 l4 85 81 -91 c99 -111 105 -116 137 -117 55 0 93 57
69 103 -7 12 -41 54 -76 94 -60 67 -71 93 -39 93 17 0 83 64 100 98 41 82 25
172 -43 243 -57 58 -93 69 -232 69 -97 0 -107 -2 -127 -23z m253 -152 c31 -30
31 -47 2 -81 -18 -21 -35 -28 -75 -32 l-52 -5 0 72 0 71 50 0 c41 0 56 -5 75
-25z"/>
<path d="M1950 4710 c-19 -19 -20 -33 -20 -325 0 -292 1 -306 20 -325 30 -30
83 -27 109 6 18 23 21 41 21 140 l0 114 80 0 c89 0 120 17 120 66 0 60 -41 84
-141 84 l-59 0 0 55 0 55 69 0 c109 0 151 23 151 82 0 14 -9 34 -20 46 -20 21
-30 22 -165 22 -132 0 -147 -2 -165 -20z"/>
<path d="M2517 4712 c-15 -16 -17 -54 -17 -329 0 -288 1 -311 18 -326 27 -24
85 -22 108 4 16 18 20 40 23 140 l3 119 79 0 c68 0 81 3 99 22 11 12 20 33 20
47 -1 55 -46 81 -141 81 l-59 0 0 54 0 54 86 3 c79 4 87 6 110 32 29 34 30 56
3 91 -20 26 -20 26 -168 26 -131 0 -150 -2 -164 -18z"/>
<path d="M1070 3750 c-11 -11 -20 -33 -20 -50 0 -69 80 -97 128 -44 27 31 28
54 1 88 -26 33 -79 36 -109 6z"/>
<path d="M1347 3752 c-24 -27 -22 -85 4 -108 21 -18 57 -19 1361 -19 l1340 0
19 24 c23 28 24 69 3 99 l-15 22 -1348 0 c-1293 0 -1349 -1 -1364 -18z"/>
<path d="M1072 3347 c-31 -33 -29 -80 4 -106 50 -39 108 -16 120 46 13 67 -77
110 -124 60z"/>
<path d="M1357 3358 c-38 -30 -38 -95 1 -124 14 -11 267 -13 1348 -14 l1331 0
27 21 c34 27 36 77 3 107 l-23 22 -1335 0 c-1053 0 -1339 -3 -1352 -12z"/>
<path d="M1093 2960 c-26 -11 -43 -40 -43 -74 0 -63 89 -90 129 -40 28 36 26
60 -8 95 -31 31 -42 33 -78 19z"/>
<path d="M1380 2963 c-33 -12 -50 -37 -50 -73 0 -76 -121 -70 1378 -70 1329 0
1342 0 1362 20 27 27 26 81 -1 106 -21 18 -59 19 -1348 21 -729 1 -1333 -1
-1341 -4z"/>
<path d="M1071 2536 c-49 -52 -1 -136 68 -121 20 4 37 17 46 35 21 40 19 57
-10 85 -31 32 -74 33 -104 1z"/>
<path d="M1350 2540 c-33 -33 -30 -75 6 -107 l25 -23 1328 0 1328 0 27 21 c33
26 36 79 6 109 -20 20 -33 20 -1360 20 -1327 0 -1340 0 -1360 -20z"/>
<path d="M1075 2135 c-50 -49 -20 -125 49 -125 25 0 40 7 55 26 24 30 26 43
10 77 -11 25 -47 47 -75 47 -8 0 -26 -11 -39 -25z"/>
<path d="M1354 2137 c-34 -30 -36 -83 -3 -109 20 -17 64 -18 630 -18 596 0
609 0 629 20 30 30 27 83 -6 109 -26 21 -35 21 -625 21 l-598 0 -27 -23z"/>
<path d="M3425 2139 c-34 -19 -45 -41 -45 -86 0 -43 0 -43 -37 -43 -134 -2
-230 -105 -240 -259 -8 -114 3 -180 40 -242 41 -68 103 -108 181 -116 l56 -6
0 -158 0 -159 -35 0 c-47 0 -82 35 -91 90 -7 40 -41 80 -70 80 -27 0 -62 -23
-73 -47 -18 -38 3 -124 42 -176 40 -53 124 -97 184 -97 42 0 43 -1 43 -32 1
-62 52 -96 106 -73 34 14 44 32 44 76 0 28 2 29 43 29 60 0 144 44 184 97 41
55 57 132 51 249 -4 76 -10 100 -34 143 -42 78 -130 131 -216 131 l-28 0 0
160 0 160 25 0 c61 0 105 -49 105 -116 0 -64 93 -86 133 -32 19 25 20 33 9 90
-21 115 -108 197 -217 206 l-55 4 0 43 c0 68 -55 112 -105 84z m-45 -439 l0
-160 -30 0 c-19 0 -42 11 -62 29 -32 28 -33 33 -36 114 -6 124 24 174 101 176
l27 1 0 -160z m242 -339 c30 -26 33 -35 36 -100 8 -132 -21 -191 -93 -191
l-35 0 0 160 0 160 30 0 c19 0 42 -11 62 -29z"/>
<path d="M1070 1730 c-28 -28 -26 -75 5 -105 13 -14 31 -25 39 -25 28 0 64 22
75 47 16 34 14 47 -10 77 -26 33 -79 36 -109 6z"/>
<path d="M1351 1732 c-33 -26 -31 -79 3 -109 l27 -23 598 0 c590 0 599 0 625
21 33 26 36 79 6 109 -20 20 -33 20 -629 20 -566 0 -610 -1 -630 -18z"/>
<path d="M1076 1329 c-34 -27 -36 -77 -3 -107 31 -30 72 -28 104 4 20 20 24
31 19 57 -12 62 -70 85 -120 46z"/>
<path d="M1356 1328 c-36 -33 -39 -75 -6 -108 20 -20 33 -20 630 -20 597 0
610 0 630 20 30 30 27 83 -6 109 -26 21 -35 21 -625 21 l-598 0 -25 -22z"/>
<path d="M1070 920 c-11 -11 -20 -33 -20 -49 0 -71 80 -101 127 -47 28 33 29
56 2 90 -26 33 -79 36 -109 6z"/>
<path d="M1347 922 c-24 -27 -22 -85 4 -108 20 -18 45 -19 629 -19 584 0 609
1 629 19 27 25 29 86 3 109 -17 15 -75 17 -634 17 -583 0 -616 -1 -631 -18z"/>
<path d="M1076 519 c-36 -28 -36 -80 0 -108 25 -20 39 -21 261 -21 l234 0 24
25 c14 13 25 36 25 50 0 14 -11 37 -25 50 l-24 25 -234 0 c-222 0 -236 -1
-261 -21z"/>
<path d="M3476 519 c-34 -27 -36 -77 -3 -107 23 -21 31 -22 259 -22 215 0 238
2 259 19 32 26 32 86 0 112 -21 17 -43 19 -256 19 -220 0 -234 -1 -259 -21z"/>
</g>
</svg>
