<?xml version="1.0" standalone="no"?>
<!DOCTYPE svg PUBLIC "-//W3C//DTD SVG 20010904//EN"
 "http://www.w3.org/TR/2001/REC-SVG-20010904/DTD/svg10.dtd">
<svg version="1.0" xmlns="http://www.w3.org/2000/svg"
 width="512.000000pt" height="512.000000pt" viewBox="0 0 512.000000 512.000000"
 preserveAspectRatio="xMidYMid meet">

<g transform="translate(0.000000,512.000000) scale(0.100000,-0.100000)"
fill="#000000" stroke="none">
<path d="M1275 4941 c-16 -10 -234 -223 -482 -473 l-453 -454 0 -1719 c0
-1422 3 -1729 14 -1771 33 -125 135 -253 247 -309 111 -57 60 -55 1519 -55
1483 0 1400 -3 1523 62 32 18 84 57 115 88 l57 57 86 6 c225 17 443 119 604
281 122 123 202 265 253 449 13 48 17 100 16 227 0 150 -3 173 -27 253 -84
275 -275 496 -524 609 -76 34 -238 78 -289 78 l-34 0 0 1118 c0 1230 1 1195
-62 1314 -57 107 -149 186 -274 234 -47 18 -100 19 -1154 22 -1071 2 -1106 2
-1135 -17z m2262 -143 c73 -27 154 -102 190 -177 l28 -56 3 -1147 2 -1148 -29
0 c-47 0 -162 -27 -237 -55 -307 -115 -531 -380 -600 -708 -19 -91 -18 -278 2
-375 70 -342 321 -615 664 -722 l85 -27 -47 -30 c-26 -17 -67 -36 -90 -42 -32
-9 -390 -11 -1413 -9 l-1370 3 -46 23 c-102 50 -170 134 -195 241 -11 45 -14
368 -14 1699 l0 1642 434 0 c412 0 435 1 457 19 l24 19 3 436 3 436 1044 0
1044 0 58 -22z m-2287 -413 l0 -335 -337 0 -338 0 335 335 c184 184 336 335
337 335 2 0 3 -151 3 -335z m2785 -2269 c112 -30 255 -109 339 -187 186 -174
269 -361 268 -609 0 -106 -4 -139 -26 -213 -70 -234 -221 -416 -429 -517 -131
-63 -190 -75 -362 -75 -129 0 -160 3 -225 23 -277 87 -487 303 -562 580 -16
58 -21 108 -21 202 -1 154 15 226 85 368 108 221 322 386 568 438 83 17 283
12 365 -10z"/>
<path d="M1840 4480 c-11 -11 -20 -31 -20 -45 0 -14 9 -34 20 -45 20 -20 33
-20 733 -20 391 0 717 4 723 8 20 13 35 52 29 72 -17 52 18 50 -751 50 -701 0
-714 0 -734 -20z"/>
<path d="M2842 3887 l-22 -23 0 -866 c0 -825 1 -866 18 -881 16 -14 45 -17
190 -17 165 0 171 1 186 22 14 20 16 120 16 884 l0 863 -26 20 c-24 19 -40 21
-184 21 -151 0 -157 -1 -178 -23z m248 -887 l0 -771 -67 3 -68 3 -3 768 -2
767 70 0 70 0 0 -770z"/>
<path d="M2239 3621 l-24 -19 -3 -714 c-1 -392 0 -723 3 -735 12 -50 25 -53
205 -53 186 0 194 2 205 63 3 18 5 349 3 735 l-3 704 -24 19 c-21 17 -41 19
-181 19 -140 0 -160 -2 -181 -19z m251 -756 l0 -635 -70 0 -70 0 0 635 0 635
70 0 70 0 0 -635z"/>
<path d="M1630 3300 c-20 -20 -20 -33 -20 -593 0 -543 1 -575 18 -590 16 -14
45 -17 190 -17 165 0 171 1 186 22 14 20 16 92 16 588 l0 567 -23 21 c-22 21
-33 22 -185 22 -149 0 -164 -2 -182 -20z m250 -595 l0 -476 -67 3 -68 3 -3
473 -2 472 70 0 70 0 0 -475z"/>
<path d="M1049 3089 c-14 -5 -31 -21 -38 -35 -8 -17 -11 -155 -11 -460 0 -433
2 -465 34 -486 15 -10 338 -10 353 0 6 4 17 20 22 35 15 39 15 863 0 905 -7
20 -21 34 -41 41 -38 13 -283 13 -319 0z m231 -494 l0 -365 -70 0 -70 0 0 365
0 365 70 0 70 0 0 -365z"/>
<path d="M1029 1842 c-31 -26 -31 -78 0 -104 22 -17 62 -18 881 -18 819 0 859
1 881 18 31 26 31 78 0 104 -22 17 -62 18 -881 18 -819 0 -859 -1 -881 -18z"/>
<path d="M1029 1452 c-31 -26 -31 -78 0 -104 22 -17 61 -18 831 -18 802 0 807
0 834 21 26 20 35 61 18 85 -22 33 -47 34 -855 34 -767 0 -806 -1 -828 -18z"/>
<path d="M1029 1062 c-31 -26 -31 -78 0 -104 22 -17 61 -18 851 -18 822 0 827
0 854 21 26 20 35 61 18 85 -22 33 -47 34 -875 34 -787 0 -826 -1 -848 -18z"/>
<path d="M1029 672 c-31 -26 -31 -78 0 -104 22 -17 64 -18 942 -18 680 0 925
3 944 12 46 21 46 101 -1 118 -16 6 -378 10 -944 10 -877 0 -919 -1 -941 -18z"/>
<path d="M3780 1933 c-20 -25 -21 -38 -18 -135 3 -121 14 -141 69 -141 56 0
69 28 69 152 0 99 -2 109 -23 129 -32 30 -71 28 -97 -5z"/>
<path d="M3282 1739 c-28 -10 -46 -50 -39 -81 4 -13 40 -57 81 -97 66 -63 79
-72 107 -69 21 2 39 13 52 30 27 37 13 67 -66 146 -68 67 -100 84 -135 71z"/>
<path d="M4247 1662 c-62 -63 -77 -83 -77 -108 0 -38 27 -64 66 -64 23 0 45
16 107 78 84 84 95 114 57 152 -38 38 -69 27 -153 -58z"/>
<path d="M3675 1516 c-172 -40 -333 -124 -507 -263 -101 -82 -104 -108 -20
-183 185 -165 431 -279 642 -296 232 -20 500 89 719 291 79 74 82 99 14 163
-127 119 -302 225 -448 272 -89 29 -307 37 -400 16z m361 -179 c54 -60 79
-135 71 -214 -6 -55 -45 -138 -81 -172 -41 -38 -178 -51 -305 -30 -56 10 -71
17 -102 50 -119 123 -72 372 76 408 22 6 98 9 169 8 l128 -2 44 -48z m355
-173 c13 -16 16 -14 -89 -90 -35 -26 -65 -44 -67 -42 -3 2 0 31 5 64 6 32 8
70 6 84 -3 14 -7 42 -11 64 l-6 38 75 -52 c41 -28 80 -58 87 -66z m-973 44
c-6 -38 -7 -78 -1 -113 6 -30 8 -55 6 -55 -6 0 -54 31 -111 73 l-52 38 27 23
c33 27 136 96 139 93 1 -1 -2 -28 -8 -59z"/>
</g>
</svg>
