<?xml version="1.0" standalone="no"?>
<!DOCTYPE svg PUBLIC "-//W3C//DTD SVG 20010904//EN"
 "http://www.w3.org/TR/2001/REC-SVG-20010904/DTD/svg10.dtd">
<svg version="1.0" xmlns="http://www.w3.org/2000/svg"
 width="512.000000pt" height="512.000000pt" viewBox="0 0 512.000000 512.000000"
 preserveAspectRatio="xMidYMid meet">

<g transform="translate(0.000000,512.000000) scale(0.100000,-0.100000)"
fill="#000000" stroke="none">
<path d="M1172 5104 c-96 -26 -187 -96 -240 -185 -50 -84 -52 -109 -52 -759 0
-655 1 -664 55 -756 15 -25 44 -63 66 -84 l38 -37 -45 -48 c-26 -26 -60 -78
-78 -114 l-31 -66 -3 -1345 c-2 -937 1 -1361 8 -1397 30 -142 145 -262 286
-298 54 -14 217 -15 1410 -13 l1350 3 76 38 c170 84 234 219 226 478 -3 102
-5 112 -27 130 -28 22 -69 25 -97 5 -17 -13 -20 -31 -24 -168 -6 -144 -7 -156
-35 -206 -32 -59 -75 -96 -136 -117 -59 -21 -2663 -22 -2722 -1 -55 20 -103
61 -134 114 l-28 47 -3 1335 c-3 1451 -5 1378 52 1453 33 43 107 83 171 92 59
9 95 37 95 76 0 46 -28 69 -96 78 -76 11 -110 29 -156 79 -71 79 -69 56 -66
742 3 578 4 617 22 650 26 49 64 88 111 113 l40 22 1335 3 c1451 3 1378 5
1453 -52 19 -14 47 -50 63 -78 l29 -53 3 -589 c2 -405 -1 -606 -8 -643 -22
-102 -102 -175 -216 -193 -69 -11 -94 -32 -94 -77 0 -39 29 -73 63 -73 89 0
193 -68 231 -150 21 -45 21 -56 26 -1103 5 -1033 5 -1059 24 -1073 29 -21 80
-18 102 7 18 20 19 54 22 1043 1 605 -1 1046 -7 1082 -12 81 -52 161 -109 218
l-45 46 47 50 c54 57 91 132 106 210 13 68 13 1164 0 1243 -21 133 -96 234
-218 294 l-76 38 -1355 2 c-1153 2 -1364 0 -1409 -13z"/>
<path d="M1225 4775 l-25 -24 0 -266 0 -266 25 -24 24 -25 429 0 429 0 21 23
c21 23 22 30 22 294 l0 272 -26 20 c-26 21 -37 21 -451 21 l-424 0 -24 -25z
m775 -290 l0 -165 -325 0 -325 0 0 165 0 165 325 0 325 0 0 -165z"/>
<path d="M2442 4713 c-21 -8 -43 -61 -36 -88 14 -55 12 -55 476 -55 415 0 429
1 448 20 30 30 27 83 -6 109 -26 21 -36 21 -448 20 -231 0 -427 -3 -434 -6z"/>
<path d="M3556 4699 c-33 -26 -36 -79 -6 -109 18 -18 33 -20 164 -20 79 0 152
3 161 6 26 10 44 62 33 94 -14 42 -46 50 -192 50 -120 0 -136 -2 -160 -21z"/>
<path d="M2443 4388 c-48 -23 -51 -103 -4 -127 12 -7 117 -11 285 -11 253 0
267 1 286 20 30 30 27 83 -6 109 -26 20 -38 21 -283 20 -157 0 -264 -4 -278
-11z"/>
<path d="M3236 4378 c-36 -33 -39 -75 -6 -108 19 -19 33 -20 324 -20 167 0
312 3 321 6 8 4 22 19 30 34 19 36 4 83 -31 99 -17 7 -120 11 -319 11 -291 0
-294 0 -319 -22z"/>
<path d="M1243 3990 c-38 -16 -43 -41 -43 -228 0 -166 2 -181 21 -206 27 -34
77 -36 107 -3 21 22 22 32 22 211 0 185 0 187 -25 211 -25 26 -45 30 -82 15z"/>
<path d="M1563 3990 c-38 -16 -43 -41 -43 -228 0 -166 2 -181 21 -206 27 -34
77 -36 107 -3 21 22 22 32 22 211 0 185 0 187 -25 211 -25 26 -45 30 -82 15z"/>
<path d="M1804 3988 c-38 -18 -44 -51 -44 -232 0 -160 2 -175 21 -200 27 -34
79 -36 109 -4 19 20 20 34 20 210 0 187 0 189 -25 213 -26 27 -47 30 -81 13z"/>
<path d="M2044 3988 c-38 -18 -44 -51 -44 -232 0 -160 2 -175 21 -200 26 -33
79 -36 109 -6 19 19 20 33 20 210 0 189 0 191 -25 215 -26 27 -47 30 -81 13z"/>
<path d="M2443 3988 c-38 -19 -45 -54 -41 -241 3 -155 5 -177 22 -196 25 -27
79 -28 106 -1 19 19 20 33 20 214 l0 195 -26 20 c-29 23 -48 25 -81 9z"/>
<path d="M2749 3970 l-30 -30 3 -186 c3 -181 4 -186 27 -205 30 -25 76 -24
101 1 19 19 20 33 20 214 l0 195 -26 20 c-36 29 -60 26 -95 -9z"/>
<path d="M2993 3976 l-28 -24 0 -192 c0 -189 0 -192 24 -211 30 -25 76 -24
101 1 19 19 20 33 20 214 l0 195 -26 20 c-35 27 -57 26 -91 -3z"/>
<path d="M3233 3976 l-28 -24 0 -192 c0 -189 0 -192 24 -211 30 -25 76 -24
101 1 19 19 20 33 20 214 l0 195 -26 20 c-35 27 -57 26 -91 -3z"/>
<path d="M3556 3979 l-26 -20 0 -195 c0 -181 1 -195 20 -214 25 -25 71 -26
101 -1 24 19 24 22 24 211 l0 192 -28 24 c-34 29 -56 30 -91 3z"/>
<path d="M3796 3979 l-26 -20 0 -195 c0 -181 1 -195 20 -214 25 -25 71 -26
101 -1 24 19 24 22 24 211 l0 192 -28 24 c-34 29 -56 30 -91 3z"/>
<path d="M1484 3349 c-22 -11 -44 -48 -44 -73 0 -7 9 -25 21 -40 20 -25 23
-26 135 -26 101 0 116 2 134 20 25 25 26 71 1 101 -18 22 -27 24 -123 26 -59
2 -112 -2 -124 -8z"/>
<path d="M1964 3349 c-22 -11 -44 -48 -44 -73 0 -7 9 -25 21 -40 20 -25 23
-26 135 -26 101 0 116 2 134 20 25 25 26 71 1 101 -18 22 -27 24 -123 26 -59
2 -112 -2 -124 -8z"/>
<path d="M2429 3331 c-25 -26 -30 -37 -24 -59 14 -56 28 -62 152 -62 129 0
153 11 153 73 0 58 -26 71 -146 75 l-104 4 -31 -31z"/>
<path d="M2915 3337 c-34 -28 -38 -76 -10 -107 16 -18 31 -20 132 -20 129 0
153 11 153 73 0 58 -26 71 -144 75 -97 4 -105 2 -131 -21z"/>
<path d="M3420 3353 c-54 -21 -70 -98 -28 -127 34 -24 228 -23 257 2 30 24 31
76 2 105 -19 19 -34 22 -119 24 -53 1 -104 0 -112 -4z"/>
<path d="M2525 2870 c-85 -19 -159 -93 -215 -213 -54 -115 -70 -205 -70 -389
l0 -153 -466 -320 c-256 -176 -472 -328 -480 -339 -14 -21 -20 -178 -8 -211 4
-8 19 -22 34 -30 24 -13 74 -9 455 30 235 25 436 45 446 45 18 0 19 -10 19
-170 l0 -169 -114 -96 c-63 -52 -117 -102 -120 -111 -3 -9 -6 -56 -6 -105 0
-100 15 -145 53 -154 12 -3 131 12 265 35 l242 40 246 -41 246 -41 27 19 c25
19 26 25 29 124 2 57 0 113 -2 124 -3 11 -58 63 -121 115 l-115 94 0 168 0
168 24 0 c13 0 216 -20 452 -45 390 -41 430 -43 452 -29 12 8 28 27 33 42 12
29 8 180 -5 200 -4 6 -220 158 -481 337 l-473 325 -4 198 c-4 186 -6 201 -32
272 -75 201 -193 307 -311 280z m110 -215 c22 -33 51 -91 63 -128 22 -67 22
-68 22 -878 0 -881 2 -853 -56 -898 l-29 -23 -5 177 c-5 160 -7 178 -24 191
-28 20 -69 17 -97 -5 -23 -18 -24 -25 -29 -191 l-5 -171 -27 28 c-60 63 -58
30 -58 880 0 854 0 843 61 966 69 138 118 151 184 52z m-395 -968 l0 -242
-372 -38 c-205 -21 -388 -41 -407 -44 -23 -4 -32 -2 -30 6 3 9 796 561 806
561 2 0 3 -109 3 -243z m1052 -38 c219 -150 395 -276 390 -280 -4 -4 -187 12
-407 35 l-400 41 -3 244 c-2 193 0 242 10 238 7 -2 192 -128 410 -278z m-1008
-925 c14 -26 26 -48 26 -49 0 -4 -122 -25 -143 -25 -30 0 -18 24 35 72 29 26
54 48 55 48 1 0 13 -21 27 -46z m634 -3 c39 -33 56 -71 31 -71 -5 0 -41 5 -78
11 l-68 11 26 48 c14 27 30 46 36 42 5 -3 29 -22 53 -41z"/>
<path d="M3415 2870 c-12 -4 -26 -14 -32 -21 -6 -8 -68 -147 -137 -310 -133
-312 -136 -322 -92 -359 23 -18 72 -17 94 4 11 9 30 43 43 76 l24 60 125 0
125 0 24 -60 c13 -33 32 -67 43 -76 22 -21 71 -22 94 -4 44 37 41 47 -92 359
-69 163 -133 303 -142 312 -22 22 -52 29 -77 19z m53 -325 c12 -31 22 -60 22
-65 0 -6 -22 -10 -50 -10 -27 0 -50 4 -50 10 0 14 44 120 50 120 3 0 15 -25
28 -55z"/>
</g>
</svg>
