<?xml version="1.0" standalone="no"?>
<!DOCTYPE svg PUBLIC "-//W3C//DTD SVG 20010904//EN"
 "http://www.w3.org/TR/2001/REC-SVG-20010904/DTD/svg10.dtd">
<svg version="1.0" xmlns="http://www.w3.org/2000/svg"
 width="512.000000pt" height="512.000000pt" viewBox="0 0 512.000000 512.000000"
 preserveAspectRatio="xMidYMid meet">

<g transform="translate(0.000000,512.000000) scale(0.100000,-0.100000)"
fill="#000000" stroke="none">
<path d="M678 5101 c-31 -10 -72 -28 -92 -40 -56 -35 -133 -126 -158 -189
l-23 -57 0 -2255 0 -2255 24 -60 c33 -83 133 -183 216 -216 l60 -24 1865 0
1865 0 57 23 c67 27 143 93 186 160 50 76 62 144 62 338 0 158 -2 173 -21 198
-25 32 -75 35 -110 7 -23 -19 -24 -24 -29 -219 l-5 -200 -30 -43 c-17 -24 -50
-57 -74 -74 l-43 -30 -1836 -3 c-1317 -2 -1848 0 -1875 8 -49 14 -115 74 -138
125 -18 38 -19 134 -19 2263 0 2455 -5 2259 63 2330 55 58 80 66 220 72 126 5
129 6 153 33 31 36 31 71 -1 102 -23 24 -30 25 -142 24 -85 0 -134 -5 -175
-18z"/>
<path d="M1225 5096 c-43 -43 -30 -105 26 -125 23 -8 478 -11 1591 -11 1386 0
1563 -2 1596 -16 43 -18 85 -55 115 -104 l22 -35 5 -1916 c5 -1867 5 -1917 24
-1938 29 -32 88 -29 115 5 l21 27 0 1891 c0 2063 3 1951 -56 2052 -37 63 -125
139 -192 166 l-57 23 -1593 3 -1593 2 -24 -24z"/>
<path d="M1398 4610 c-157 -25 -309 -120 -397 -250 -259 -379 -13 -889 445
-926 330 -26 634 257 634 591 0 213 -142 438 -331 528 -116 54 -238 74 -351
57z m242 -179 c111 -43 207 -138 252 -248 18 -47 23 -77 23 -163 0 -98 -2
-110 -32 -173 -44 -93 -119 -169 -212 -215 -72 -36 -79 -37 -180 -37 -122 1
-182 19 -266 83 -287 218 -201 669 145 767 74 20 197 14 270 -14z"/>
<path d="M2392 4450 c-32 -30 -33 -82 -1 -115 19 -20 35 -20 872 -23 468 -2
867 0 885 3 68 12 94 83 47 130 l-24 25 -879 0 c-870 0 -878 0 -900 -20z"/>
<path d="M2397 4088 c-40 -31 -36 -115 8 -132 9 -3 306 -6 659 -6 l643 0 21
23 c28 29 28 67 1 101 l-20 26 -648 0 c-502 0 -651 -3 -664 -12z"/>
<path d="M2397 3718 c-40 -31 -36 -115 8 -132 9 -3 363 -6 786 -6 756 0 769 0
789 20 12 12 20 33 20 55 0 22 -8 43 -20 55 -20 20 -33 20 -793 20 -603 0
-777 -3 -790 -12z"/>
<path d="M2045 3069 l-113 -111 -61 50 c-83 67 -145 99 -237 122 -199 51 -401
-1 -551 -144 -194 -184 -242 -452 -124 -692 66 -133 192 -245 334 -294 86 -30
238 -38 331 -16 242 57 427 271 452 524 6 70 6 72 -24 102 -38 38 -65 38 -103
1 -23 -24 -29 -38 -29 -74 0 -104 -67 -240 -153 -311 -136 -111 -317 -133
-473 -56 -255 125 -322 470 -133 675 94 102 191 145 324 145 101 0 170 -21
249 -75 98 -66 101 -55 -69 -225 l-150 -150 -80 80 c-65 65 -86 80 -111 80
-43 0 -74 -32 -74 -77 0 -32 11 -47 103 -140 110 -113 144 -137 180 -128 13 4
182 165 375 358 330 331 352 355 352 388 0 43 -34 79 -75 79 -22 0 -50 -22
-140 -111z"/>
<path d="M2425 3003 c-46 -12 -71 -57 -54 -100 21 -55 -24 -52 922 -53 l878 0
24 25 c43 42 28 103 -29 125 -28 10 -1699 13 -1741 3z"/>
<path d="M2415 2630 c-55 -22 -66 -88 -21 -127 l27 -23 640 0 640 0 24 25 c40
39 32 96 -16 120 -24 13 -123 15 -651 14 -343 0 -632 -4 -643 -9z"/>
<path d="M2394 2247 c-20 -17 -27 -33 -27 -57 0 -24 7 -40 27 -57 l27 -23 763
0 c757 0 764 0 790 21 20 16 26 29 26 59 0 30 -6 43 -26 59 -26 21 -33 21
-790 21 l-763 0 -27 -23z"/>
<path d="M1404 1680 c-231 -35 -422 -205 -490 -435 -27 -92 -23 -229 10 -330
65 -201 237 -357 441 -400 132 -28 253 -12 384 50 189 90 331 317 331 530 0
189 -110 388 -273 495 -109 71 -279 110 -403 90z m236 -179 c111 -43 207 -138
252 -248 18 -47 23 -77 23 -163 0 -98 -2 -110 -32 -173 -44 -93 -119 -169
-212 -215 -73 -36 -78 -37 -186 -37 -102 1 -115 3 -175 31 -281 133 -347 487
-131 703 121 121 306 161 461 102z"/>
<path d="M2390 1515 c-30 -32 -31 -79 -1 -108 l22 -22 852 -3 c468 -1 867 0
885 3 68 12 94 83 47 130 l-24 25 -879 0 -879 0 -23 -25z"/>
<path d="M2390 1150 c-31 -31 -30 -85 2 -112 19 -17 66 -18 667 -18 l648 0 21
23 c29 31 28 72 -3 102 l-24 25 -646 0 c-632 0 -645 0 -665 -20z"/>
<path d="M2397 788 c-40 -31 -36 -115 8 -132 9 -3 363 -6 786 -6 756 0 769 0
789 20 12 12 20 33 20 55 0 22 -8 43 -20 55 -20 20 -33 20 -793 20 -603 0
-777 -3 -790 -12z"/>
</g>
</svg>
