<?xml version="1.0" standalone="no"?>
<!DOCTYPE svg PUBLIC "-//W3C//DTD SVG 20010904//EN"
 "http://www.w3.org/TR/2001/REC-SVG-20010904/DTD/svg10.dtd">
<svg version="1.0" xmlns="http://www.w3.org/2000/svg"
 width="512.000000pt" height="512.000000pt" viewBox="0 0 512.000000 512.000000"
 preserveAspectRatio="xMidYMid meet">

<g transform="translate(0.000000,512.000000) scale(0.100000,-0.100000)"
fill="#000000" stroke="none">
<path d="M572 5011 c-261 -65 -476 -276 -548 -541 -25 -90 -25 -290 -1 -380
59 -216 206 -391 411 -491 159 -77 103 -74 1277 -74 1015 0 1048 1 1068 19 29
26 29 86 0 112 -20 18 -50 19 -790 22 l-769 2 58 58 c306 301 306 784 1 1081
l-62 61 1876 0 1877 0 0 -600 0 -600 -965 -2 -964 -3 -22 -22 c-28 -28 -28
-79 1 -107 21 -21 22 -21 1008 -24 543 -2 1002 0 1020 3 17 3 41 16 52 27 20
21 20 36 20 728 l0 707 -23 21 -23 22 -2215 -1 c-2096 0 -2218 -1 -2287 -18z
m331 -146 c161 -42 319 -170 391 -315 86 -177 86 -363 0 -540 -28 -57 -57 -95
-118 -155 -89 -88 -166 -133 -277 -161 -87 -22 -260 -15 -342 15 -285 102
-457 406 -393 695 27 122 76 208 170 301 86 85 152 125 261 156 76 22 230 24
308 4z"/>
<path d="M644 4708 c-22 -10 -44 -47 -44 -72 0 -7 9 -25 20 -39 17 -22 30 -27
78 -29 l57 -3 3 -342 2 -342 26 -20 c36 -28 60 -26 95 8 l29 29 0 382 0 382
-29 29 c-28 28 -33 29 -123 28 -51 0 -103 -5 -114 -11z"/>
<path d="M4235 3359 c-31 -17 -715 -701 -731 -731 -18 -34 -18 -62 0 -97 23
-44 53 -51 221 -51 l155 0 0 -1169 c0 -1167 0 -1168 21 -1195 l20 -26 383 0
c377 0 383 0 402 21 18 20 19 57 22 1195 l2 1174 164 0 c159 0 164 1 189 24
31 28 42 65 32 104 -7 28 -643 677 -719 733 -31 23 -49 29 -90 29 -28 0 -60
-5 -71 -11z m374 -433 l293 -293 -109 -5 c-122 -5 -160 -20 -194 -74 -18 -31
-19 -62 -19 -1173 l0 -1141 -275 0 -275 0 0 1130 c0 1218 2 1168 -52 1217 -29
27 -104 43 -202 43 l-71 0 295 295 c162 162 299 295 305 295 6 0 142 -132 304
-294z"/>
<path d="M568 3291 c-268 -74 -472 -277 -544 -541 -25 -90 -25 -290 0 -380 56
-205 203 -388 387 -480 123 -62 181 -75 344 -75 130 0 159 3 219 23 90 30 159
65 223 113 l52 39 431 0 c417 0 431 1 450 20 30 30 27 83 -6 109 -26 20 -38
21 -385 21 l-359 0 26 42 c76 121 117 324 96 474 -14 96 -56 218 -96 282 l-26
42 915 0 915 0 0 -420 0 -420 -404 0 -405 0 -27 -23 c-34 -30 -36 -83 -3 -109
20 -17 57 -18 479 -18 436 0 459 1 481 19 l24 19 0 532 0 532 -24 19 c-23 18
-54 19 -1053 19 l-1029 0 -52 39 c-63 47 -130 82 -217 111 -94 32 -316 38
-412 11z m337 -146 c107 -28 184 -74 271 -160 61 -60 90 -98 118 -155 86 -177
86 -363 0 -540 -49 -99 -169 -221 -265 -267 -107 -52 -178 -66 -304 -61 -91 4
-122 10 -180 33 -231 93 -376 289 -392 531 -19 278 175 546 447 618 74 20 231
20 305 1z"/>
<path d="M622 2974 c-28 -14 -64 -40 -78 -57 -32 -38 -63 -104 -64 -133 0 -35
37 -74 71 -74 45 0 64 14 83 64 21 53 52 76 105 76 31 0 49 -7 73 -29 29 -25
33 -36 32 -75 -1 -57 -28 -102 -192 -323 -69 -92 -131 -182 -138 -200 -16 -38
-6 -76 25 -92 12 -7 101 -11 231 -11 211 0 211 0 235 25 28 27 30 42 14 79
-17 36 -31 40 -166 46 l-123 5 101 140 c130 179 163 247 163 335 0 75 -22 128
-80 184 -71 69 -198 87 -292 40z"/>
<path d="M680 1589 c-252 -21 -486 -182 -599 -413 -60 -122 -75 -190 -75 -336
0 -141 15 -211 69 -325 124 -260 387 -425 677 -425 122 0 219 21 323 69 122
57 248 167 315 275 l22 36 253 0 254 0 20 26 c27 35 26 57 -3 91 l-24 28 -217
3 -217 3 6 22 c3 12 11 64 18 114 12 89 7 165 -19 286 l-5 27 593 -2 594 -3 3
-222 2 -223 -218 0 c-226 0 -274 -7 -292 -40 -16 -30 -12 -68 10 -90 19 -19
33 -20 314 -20 l295 0 20 26 c20 26 21 38 21 345 l0 318 -24 28 -24 28 -686 3
c-406 1 -686 6 -686 12 0 22 -123 160 -181 204 -162 122 -335 172 -539 155z
m273 -178 c191 -66 350 -247 392 -446 43 -203 -15 -397 -164 -546 -122 -123
-257 -179 -428 -179 -170 0 -295 52 -418 175 -92 91 -136 165 -165 281 -76
298 93 612 386 715 114 40 280 40 397 0z"/>
<path d="M702 1279 c-54 -10 -101 -39 -143 -86 -84 -96 -76 -203 15 -203 37 0
51 13 81 74 55 112 205 82 205 -41 0 -57 -36 -97 -98 -106 -51 -9 -82 -37 -82
-74 1 -42 23 -63 82 -78 70 -19 98 -51 98 -111 0 -64 -40 -104 -104 -104 -60
0 -92 28 -111 98 -15 58 -36 81 -73 82 -98 1 -102 -144 -7 -249 91 -100 253
-111 356 -22 102 87 120 251 39 354 -20 25 -21 30 -7 45 57 63 74 195 36 277
-24 50 -85 111 -133 130 -45 18 -105 24 -154 14z"/>
</g>
</svg>
