<?xml version="1.0" standalone="no"?>
<!DOCTYPE svg PUBLIC "-//W3C//DTD SVG 20010904//EN"
 "http://www.w3.org/TR/2001/REC-SVG-20010904/DTD/svg10.dtd">
<svg version="1.0" xmlns="http://www.w3.org/2000/svg"
 width="512.000000pt" height="512.000000pt" viewBox="0 0 512.000000 512.000000"
 preserveAspectRatio="xMidYMid meet">

<g transform="translate(0.000000,512.000000) scale(0.100000,-0.100000)"
fill="#000000" stroke="none">
<path d="M155 5104 c-55 -20 -121 -88 -140 -143 -13 -40 -15 -309 -15 -2401 0
-2657 -8 -2414 80 -2493 26 -24 66 -49 88 -55 49 -15 2123 -17 2151 -3 9 5
247 243 529 529 l512 520 0 116 0 116 213 0 c252 0 314 11 444 75 67 33 113
65 170 119 43 40 88 78 100 84 12 7 60 12 106 12 l85 0 3 -79 c4 -85 18 -114
73 -155 26 -20 41 -21 246 -21 241 0 243 1 294 69 21 27 21 36 21 766 0 730 0
739 -21 766 -51 68 -53 69 -294 69 -205 0 -220 -1 -246 -21 -52 -39 -68 -70
-72 -143 l-4 -69 -78 -7 c-93 -8 -135 3 -176 46 -53 57 -149 127 -221 163
-141 71 -140 71 -698 71 -486 0 -501 -1 -545 -21 -197 -91 -212 -318 -29 -419
l54 -30 329 -5 328 -5 105 -185 c57 -102 113 -193 125 -202 29 -26 74 -23 103
7 43 42 44 41 -117 325 -55 96 -108 184 -119 195 -19 19 -36 20 -375 25 l-356
5 -24 28 c-13 15 -24 34 -24 42 0 26 45 66 85 75 22 5 236 10 475 10 478 0
496 -2 618 -61 37 -18 96 -62 147 -109 108 -100 149 -116 293 -113 l102 1 0
-428 0 -428 -112 -4 c-138 -5 -161 -15 -282 -127 -150 -139 -220 -161 -518
-161 l-208 0 0 459 c0 253 -3 466 -6 475 -5 13 -22 16 -80 16 l-74 0 0 -600 0
-600 -387 0 c-388 0 -388 0 -439 -24 -28 -13 -63 -39 -77 -58 -57 -75 -57 -72
-57 -533 l0 -425 -1015 0 -1016 0 -24 25 -25 24 0 2351 0 2351 25 24 24 25
1471 0 1471 0 24 -25 25 -24 0 -856 0 -855 80 0 80 0 0 856 c0 633 -3 867 -12
896 -6 22 -31 62 -55 88 -78 87 56 80 -1617 79 -1273 0 -1487 -2 -1521 -15z
m4805 -2944 l0 -680 -160 0 -160 0 0 680 0 680 160 0 160 0 0 -680z m-1978
-1257 c-72 -76 -232 -239 -356 -363 l-226 -225 0 338 0 338 25 24 24 25 332 0
331 0 -130 -137z"/>
<path d="M985 4655 c-16 -15 -25 -36 -25 -55 0 -19 9 -40 25 -55 l24 -25 671
0 671 0 24 25 c33 32 33 78 0 110 l-24 25 -671 0 -671 0 -24 -25z"/>
<path d="M540 4264 c-192 -70 -273 -277 -179 -455 36 -67 68 -98 143 -137 43
-22 64 -26 136 -27 79 0 90 3 150 36 231 127 222 456 -15 568 -65 31 -172 38
-235 15z m163 -158 c104 -43 128 -175 47 -256 -66 -66 -156 -67 -221 -1 -124
123 13 325 174 257z"/>
<path d="M1225 4175 c-16 -15 -25 -36 -25 -55 0 -19 9 -40 25 -55 l24 -25 831
0 831 0 24 25 c16 15 25 36 25 55 0 19 -9 40 -25 55 l-24 25 -831 0 -831 0
-24 -25z"/>
<path d="M1225 3855 c-16 -15 -25 -36 -25 -55 0 -19 9 -40 25 -55 l24 -25 831
0 831 0 24 25 c16 15 25 36 25 55 0 19 -9 40 -25 55 l-24 25 -831 0 -831 0
-24 -25z"/>
<path d="M540 3464 c-192 -70 -273 -277 -179 -455 36 -67 68 -98 143 -137 43
-22 64 -26 136 -27 79 0 90 3 150 36 231 127 222 456 -15 568 -65 31 -172 38
-235 15z m163 -158 c104 -43 128 -175 47 -256 -66 -66 -156 -67 -221 -1 -124
123 13 325 174 257z"/>
<path d="M1225 3375 c-16 -15 -25 -36 -25 -55 0 -19 9 -40 25 -55 l24 -25 831
0 831 0 24 25 c16 15 25 36 25 55 0 19 -9 40 -25 55 l-24 25 -831 0 -831 0
-24 -25z"/>
<path d="M1225 3055 c-16 -15 -25 -36 -25 -55 0 -19 9 -40 25 -55 l24 -25 611
0 c524 0 610 2 610 14 0 8 20 44 45 80 l45 66 -656 0 -655 0 -24 -25z"/>
<path d="M540 2664 c-192 -70 -273 -277 -179 -455 36 -67 68 -98 143 -137 43
-22 64 -26 136 -27 79 0 90 3 150 36 231 127 222 456 -15 568 -65 31 -172 38
-235 15z m163 -158 c104 -43 128 -175 47 -256 -66 -66 -156 -67 -221 -1 -124
123 13 325 174 257z"/>
<path d="M1225 2575 c-16 -15 -25 -36 -25 -55 0 -19 9 -40 25 -55 l24 -25 713
0 712 0 -45 29 c-25 16 -66 52 -90 80 l-44 51 -623 0 -623 0 -24 -25z"/>
<path d="M1225 2255 c-16 -15 -25 -36 -25 -55 0 -19 9 -40 25 -55 l24 -25 831
0 831 0 24 25 c16 15 25 36 25 55 0 19 -9 40 -25 55 l-24 25 -831 0 -831 0
-24 -25z"/>
<path d="M540 1864 c-192 -70 -273 -277 -179 -455 36 -67 68 -98 143 -137 43
-22 64 -26 136 -27 79 0 90 3 150 36 231 127 222 456 -15 568 -65 31 -172 38
-235 15z m163 -158 c104 -43 128 -175 47 -256 -66 -66 -156 -67 -221 -1 -124
123 13 325 174 257z"/>
<path d="M1225 1775 c-16 -15 -25 -36 -25 -55 0 -19 9 -40 25 -55 l24 -25 831
0 831 0 24 25 c16 15 25 36 25 55 0 19 -9 40 -25 55 l-24 25 -831 0 -831 0
-24 -25z"/>
<path d="M1225 1455 c-16 -15 -25 -36 -25 -55 0 -19 9 -40 25 -55 l24 -25 831
0 831 0 24 25 c16 15 25 36 25 55 0 19 -9 40 -25 55 l-24 25 -831 0 -831 0
-24 -25z"/>
<path d="M345 575 c-16 -15 -25 -36 -25 -55 0 -19 9 -40 25 -55 l24 -25 591 0
591 0 24 25 c33 32 33 78 0 110 l-24 25 -591 0 -591 0 -24 -25z"/>
</g>
</svg>
