<?xml version="1.0" standalone="no"?>
<!DOCTYPE svg PUBLIC "-//W3C//DTD SVG 20010904//EN"
 "http://www.w3.org/TR/2001/REC-SVG-20010904/DTD/svg10.dtd">
<svg version="1.0" xmlns="http://www.w3.org/2000/svg"
 width="512.000000pt" height="512.000000pt" viewBox="0 0 512.000000 512.000000"
 preserveAspectRatio="xMidYMid meet">

<g transform="translate(0.000000,512.000000) scale(0.100000,-0.100000)"
fill="#000000" stroke="none">
<path d="M265 5095 l-25 -24 0 -2511 0 -2511 25 -24 24 -25 1951 0 1951 0 24
25 25 24 0 896 0 895 -80 0 -80 0 0 -840 0 -840 -1840 0 -1840 0 0 2400 0
2400 1520 0 1520 0 0 -295 0 -296 25 -24 24 -25 296 0 295 0 0 -320 0 -320 80
0 80 0 0 457 0 458 -263 262 -262 263 -1713 0 -1713 0 -24 -25z m3597 -352
c155 -155 218 -224 218 -240 l0 -23 -240 0 -240 0 0 240 0 240 22 0 c16 0 86
-64 240 -217z"/>
<path d="M2090 4789 c-135 -24 -289 -86 -395 -159 -68 -47 -169 -144 -222
-214 -63 -83 -137 -242 -165 -351 -33 -132 -31 -332 4 -466 119 -446 532 -745
988 -715 223 14 427 102 591 255 212 196 324 476 305 760 -10 159 -51 290
-134 433 -43 73 -154 208 -172 208 -5 0 -29 -25 -55 -55 l-47 -54 54 -65 c69
-84 115 -160 145 -244 144 -395 -27 -822 -401 -1002 -127 -61 -190 -74 -346
-75 -160 0 -223 14 -355 79 -164 81 -279 196 -360 361 -66 132 -80 195 -80
355 0 160 14 222 79 355 101 205 290 359 516 422 97 27 321 24 410 -5 35 -12
65 -20 65 -19 1 1 14 35 28 75 l27 73 -28 10 c-101 39 -337 59 -452 38z"/>
<path d="M2333 3918 l-293 -293 -95 95 -95 94 -55 -54 -55 -55 132 -132 c120
-120 136 -133 168 -133 33 0 57 22 365 330 l330 330 -55 55 -55 55 -292 -292z"/>
<path d="M4481 3675 c-30 -9 -68 -24 -85 -35 -39 -24 -1629 -1614 -1638 -1637
-3 -10 -33 -124 -64 -255 -85 -344 -90 -339 254 -254 131 32 244 60 252 62 19
5 1616 1601 1641 1640 29 47 52 150 44 203 -16 111 -82 204 -178 251 -77 37
-152 45 -226 25z m149 -177 c30 -15 53 -37 67 -63 45 -79 22 -152 -77 -250
l-60 -60 -117 118 -118 117 60 60 c99 100 162 120 245 78z m-707 -1000 l-518
-518 -112 112 -113 113 517 517 518 518 112 -112 113 -113 -517 -517z m-743
-523 l115 -115 -58 -57 -57 -58 -117 117 -118 118 55 55 c30 30 57 55 60 55 3
0 57 -52 120 -115z m-230 -230 c35 -35 62 -66 59 -68 -5 -5 -173 -47 -175 -44
-5 4 40 177 46 177 3 0 34 -29 70 -65z"/>
<path d="M1022 2657 c-105 -106 -192 -197 -192 -202 0 -13 92 -105 105 -105 6
0 98 88 205 195 l195 195 -55 55 c-30 30 -57 55 -60 55 -3 0 -92 -87 -198
-193z"/>
<path d="M585 2695 l-25 -24 0 -271 0 -271 25 -24 24 -25 271 0 271 0 24 25
c23 22 25 32 25 120 l0 95 -80 0 -80 0 0 -40 0 -40 -160 0 -160 0 0 160 0 160
40 0 40 0 0 80 0 80 -95 0 c-88 0 -98 -2 -120 -25z"/>
<path d="M1440 2400 l0 -80 560 0 560 0 0 80 0 80 -560 0 -560 0 0 -80z"/>
<path d="M4080 2080 l0 -80 80 0 80 0 0 80 0 80 -80 0 -80 0 0 -80z"/>
<path d="M1022 1777 c-105 -106 -192 -197 -192 -202 0 -13 92 -105 105 -105 6
0 98 88 205 195 l195 195 -55 55 c-30 30 -57 55 -60 55 -3 0 -92 -87 -198
-193z"/>
<path d="M585 1815 l-25 -24 0 -271 0 -271 25 -24 24 -25 271 0 271 0 24 25
c23 22 25 32 25 120 l0 95 -80 0 -80 0 0 -40 0 -40 -160 0 -160 0 0 160 0 160
40 0 40 0 0 80 0 80 -95 0 c-88 0 -98 -2 -120 -25z"/>
<path d="M1440 1520 l0 -80 400 0 400 0 0 80 0 80 -400 0 -400 0 0 -80z"/>
<path d="M2400 1520 l0 -80 80 0 80 0 0 80 0 80 -80 0 -80 0 0 -80z"/>
<path d="M1042 917 c-116 -117 -212 -217 -212 -222 0 -13 92 -105 105 -105 6
0 107 97 225 215 l215 215 -55 55 c-30 30 -57 55 -60 55 -3 0 -101 -96 -218
-213z"/>
<path d="M585 935 l-25 -24 0 -271 0 -271 25 -24 24 -25 271 0 271 0 24 25
c23 22 25 32 25 120 l0 95 -80 0 -80 0 0 -40 0 -40 -160 0 -160 0 0 160 0 160
40 0 40 0 0 80 0 80 -95 0 c-88 0 -98 -2 -120 -25z"/>
<path d="M1440 640 l0 -80 640 0 640 0 0 80 0 80 -640 0 -640 0 0 -80z"/>
</g>
</svg>
