<?xml version="1.0" standalone="no"?>
<!DOCTYPE svg PUBLIC "-//W3C//DTD SVG 20010904//EN"
 "http://www.w3.org/TR/2001/REC-SVG-20010904/DTD/svg10.dtd">
<svg version="1.0" xmlns="http://www.w3.org/2000/svg"
 width="512.000000pt" height="512.000000pt" viewBox="0 0 512.000000 512.000000"
 preserveAspectRatio="xMidYMid meet">

<g transform="translate(0.000000,512.000000) scale(0.100000,-0.100000)"
fill="#000000" stroke="none">
<path d="M2371 5110 c-626 -52 -1179 -307 -1616 -745 -347 -346 -586 -779
-689 -1245 -80 -365 -80 -755 0 -1120 191 -864 846 -1589 1689 -1865 274 -90
511 -128 805 -128 693 0 1315 258 1805 748 407 405 654 908 731 1485 22 167
22 473 0 640 -77 578 -323 1077 -731 1486 -402 403 -913 656 -1475 728 -150
20 -388 27 -519 16z m1418 -1685 c32 -16 41 -33 41 -78 0 -29 -77 -109 -818
-850 -769 -769 -819 -817 -852 -817 -32 0 -63 28 -452 418 -403 403 -418 419
-418 455 0 52 35 87 87 87 36 0 52 -15 410 -372 l373 -373 763 761 c419 419
771 767 782 773 28 14 51 14 84 -4z"/>
</g>
</svg>
