<?xml version="1.0" standalone="no"?>
<!DOCTYPE svg PUBLIC "-//W3C//DTD SVG 20010904//EN"
 "http://www.w3.org/TR/2001/REC-SVG-20010904/DTD/svg10.dtd">
<svg version="1.0" xmlns="http://www.w3.org/2000/svg"
 width="512.000000pt" height="512.000000pt" viewBox="0 0 512.000000 512.000000"
 preserveAspectRatio="xMidYMid meet">

<g transform="translate(0.000000,512.000000) scale(0.100000,-0.100000)"
fill="#000000" stroke="none">
<path d="M530 5111 c-69 -21 -132 -74 -166 -141 -10 -21 -19 -66 -22 -111 l-4
-77 -77 -4 c-112 -7 -187 -54 -237 -148 -18 -34 -19 -109 -19 -2240 l0 -2205
22 -40 c25 -47 74 -95 123 -121 34 -18 95 -19 1685 -19 1590 0 1651 1 1685 19
94 50 141 125 148 237 l4 76 54 12 c74 17 132 63 169 136 l30 59 0 495 0 496
-85 0 -85 0 -5 -495 c-3 -272 -6 -496 -8 -497 -1 -1 -15 -9 -32 -18 -26 -13
-203 -15 -1589 -13 l-1560 3 -23 23 -23 23 -3 2165 -2 2165 29 30 29 29 1211
0 1211 0 0 -327 c0 -323 1 -329 24 -379 27 -59 90 -116 145 -132 25 -8 134
-12 314 -12 l277 0 2 -257 3 -258 85 0 85 0 3 275 c2 151 0 294 -3 317 -5 38
-40 80 -371 450 -201 224 -385 427 -409 451 l-44 42 -1273 -1 c-700 0 -1284
-4 -1298 -8z m2842 -538 c112 -126 219 -245 237 -265 l33 -38 -216 0 -217 0
-24 25 -25 24 0 241 c0 132 2 240 4 240 2 0 95 -102 208 -227z m-3032 -1981
c0 -2279 -7 -2088 79 -2173 84 -85 -38 -79 1618 -79 l1463 0 0 -56 c0 -48 -4
-59 -29 -85 l-29 -29 -1607 0 -1607 0 -29 29 -29 29 0 2162 0 2162 29 29 c26
25 37 29 85 29 l56 0 0 -2018z"/>
<path d="M850 4525 l0 -85 85 0 85 0 0 85 0 85 -85 0 -85 0 0 -85z"/>
<path d="M1197 4603 c-4 -3 -7 -42 -7 -85 l0 -78 345 0 345 0 0 85 0 85 -338
0 c-186 0 -342 -3 -345 -7z"/>
<path d="M857 4263 c-4 -3 -7 -42 -7 -85 l0 -78 515 0 516 0 -3 83 -3 82 -506
3 c-278 1 -509 -1 -512 -5z"/>
<path d="M4330 4164 c-98 -36 -176 -110 -210 -202 -27 -71 -27 -174 1 -244
l20 -52 -373 -373 -374 -374 -56 26 c-259 119 -552 -37 -601 -319 -23 -134 28
-283 128 -375 134 -122 309 -150 475 -75 l54 25 374 -374 373 -373 -20 -52
c-48 -121 -18 -267 73 -357 78 -77 132 -100 241 -100 79 0 97 4 147 28 82 40
152 120 178 204 25 82 25 124 0 206 -56 181 -266 284 -437 215 l-61 -25 -375
376 -374 376 28 55 c16 30 29 63 29 73 0 16 28 17 439 17 l440 0 24 -54 c32
-69 94 -131 166 -165 75 -35 201 -37 273 -4 66 30 143 105 175 172 24 48 28
69 28 141 0 71 -4 94 -26 141 -55 116 -163 189 -293 197 -134 8 -258 -64 -317
-183 l-32 -65 -438 0 c-411 0 -439 1 -439 18 0 9 -12 40 -25 67 -14 28 -25 54
-25 60 0 5 167 177 371 381 l372 372 46 -22 c35 -16 66 -21 131 -21 73 0 93 4
142 28 82 40 152 120 178 204 11 36 20 82 20 103 0 21 -9 67 -20 103 -26 83
-96 164 -177 203 -70 35 -184 43 -253 18z m173 -168 c77 -32 122 -125 97 -203
-44 -136 -220 -165 -302 -51 -33 47 -33 149 0 196 46 63 133 88 205 58z
m-1240 -1203 c48 -19 120 -99 135 -151 28 -93 9 -181 -55 -252 -53 -59 -108
-83 -189 -83 -206 1 -325 242 -200 406 72 94 193 126 309 80z m1580 -77 c44
-18 95 -78 103 -121 19 -104 -64 -205 -169 -205 -52 0 -119 39 -144 85 -79
140 63 303 210 241z m-340 -1280 c77 -32 122 -125 97 -203 -44 -136 -220 -165
-302 -51 -33 47 -33 149 0 196 46 63 133 88 205 58z"/>
<path d="M852 3498 l3 -83 168 -3 167 -2 0 85 0 85 -170 0 -171 0 3 -82z"/>
<path d="M1370 3495 l0 -85 595 0 595 0 0 85 0 85 -595 0 -595 0 0 -85z"/>
<path d="M850 2985 l0 -85 855 0 855 0 0 85 0 85 -855 0 -855 0 0 -85z"/>
<path d="M850 2475 l0 -85 855 0 855 0 0 85 0 85 -855 0 -855 0 0 -85z"/>
<path d="M850 1965 l0 -85 855 0 855 0 0 85 0 85 -855 0 -855 0 0 -85z"/>
<path d="M2220 1280 l0 -90 340 0 340 0 0 90 0 90 -340 0 -340 0 0 -90z"/>
<path d="M2220 935 l0 -85 340 0 340 0 0 85 0 85 -340 0 -340 0 0 -85z"/>
</g>
</svg>
