<?xml version="1.0" standalone="no"?>
<!DOCTYPE svg PUBLIC "-//W3C//DTD SVG 20010904//EN"
 "http://www.w3.org/TR/2001/REC-SVG-20010904/DTD/svg10.dtd">
<svg version="1.0" xmlns="http://www.w3.org/2000/svg"
 width="512.000000pt" height="512.000000pt" viewBox="0 0 512.000000 512.000000"
 preserveAspectRatio="xMidYMid meet">

<g transform="translate(0.000000,512.000000) scale(0.100000,-0.100000)"
fill="#000000" stroke="none">
<path d="M320 4947 c-49 -16 -133 -102 -148 -153 -9 -30 -12 -163 -12 -473 l0
-432 25 -24 c15 -16 36 -25 55 -25 19 0 40 9 55 25 l25 24 0 431 0 431 25 24
24 25 431 0 431 0 24 25 c16 15 25 36 25 55 0 19 -9 40 -25 55 l-24 25 -438
-1 c-289 -1 -450 -5 -473 -12z"/>
<path d="M3865 4935 c-16 -15 -25 -36 -25 -55 0 -19 9 -40 25 -55 l24 -25 431
0 431 0 24 -25 25 -24 0 -431 0 -431 25 -24 c15 -16 36 -25 55 -25 19 0 40 9
55 25 l25 24 0 432 c0 310 -3 443 -12 473 -16 55 -99 138 -154 154 -30 9 -163
12 -473 12 l-432 0 -24 -25z"/>
<path d="M3485 4308 c-27 -5 -86 -27 -131 -48 -193 -93 -314 -291 -314 -515
l0 -61 -565 -358 c-362 -229 -569 -355 -577 -350 -7 5 -31 22 -53 39 -155 118
-383 136 -570 46 -344 -167 -421 -626 -148 -896 200 -198 521 -218 737 -46 21
17 42 31 45 31 3 -1 258 -166 566 -368 l560 -368 3 -44 c13 -238 125 -418 317
-511 479 -231 977 268 745 747 -165 342 -624 419 -893 150 -34 -35 -76 -89
-93 -120 -18 -35 -34 -54 -42 -51 -7 3 -249 159 -538 347 -372 244 -523 347
-520 358 3 8 17 47 32 85 24 62 28 83 28 185 0 102 -4 123 -28 185 -15 39 -29
77 -32 85 -3 10 45 46 158 116 90 56 331 208 536 338 205 130 376 236 380 236
4 0 18 -21 32 -47 13 -26 53 -75 88 -110 268 -268 727 -190 893 152 202 418
-156 880 -616 793z m279 -186 c91 -42 149 -100 194 -190 35 -72 37 -81 37
-172 0 -91 -2 -100 -37 -172 -45 -91 -103 -147 -196 -191 -61 -29 -76 -32
-162 -32 -86 0 -101 3 -162 32 -93 44 -151 100 -196 191 -35 72 -37 81 -37
171 0 87 3 102 32 163 40 85 97 147 172 186 78 42 122 52 213 48 61 -3 92 -11
142 -34z m-2080 -1200 c91 -42 149 -100 194 -190 35 -72 37 -81 37 -172 0 -91
-2 -100 -37 -172 -45 -91 -103 -147 -196 -191 -61 -29 -76 -32 -162 -32 -86 0
-101 3 -162 32 -93 44 -151 100 -196 191 -35 72 -37 81 -37 171 0 87 3 102 32
163 40 85 97 147 172 186 78 42 122 52 213 48 61 -3 92 -11 142 -34z m2080
-1200 c91 -42 149 -100 194 -190 35 -72 37 -81 37 -172 0 -91 -2 -100 -37
-172 -45 -91 -103 -147 -196 -191 -61 -29 -76 -32 -162 -32 -86 0 -101 3 -162
32 -93 44 -151 100 -196 191 -35 72 -37 81 -37 171 0 87 3 102 32 163 40 85
97 147 172 186 78 42 122 52 213 48 61 -3 92 -11 142 -34z"/>
<path d="M185 1255 l-25 -24 0 -432 c0 -310 3 -443 12 -473 16 -55 99 -138
154 -154 30 -9 163 -12 473 -12 l432 0 24 25 c33 32 33 78 0 110 l-24 25 -431
0 -431 0 -24 25 -25 24 0 431 0 431 -25 24 c-15 16 -36 25 -55 25 -19 0 -40
-9 -55 -25z"/>
<path d="M4825 1255 l-25 -24 0 -431 0 -431 -25 -24 -24 -25 -431 0 -431 0
-24 -25 c-16 -15 -25 -36 -25 -55 0 -19 9 -40 25 -55 l24 -25 432 0 c310 0
443 3 473 12 55 16 138 99 154 154 9 30 12 163 12 473 l0 432 -25 24 c-15 16
-36 25 -55 25 -19 0 -40 -9 -55 -25z"/>
</g>
</svg>
