<?xml version="1.0" standalone="no"?>
<!DOCTYPE svg PUBLIC "-//W3C//DTD SVG 20010904//EN"
 "http://www.w3.org/TR/2001/REC-SVG-20010904/DTD/svg10.dtd">
<svg version="1.0" xmlns="http://www.w3.org/2000/svg"
 width="512.000000pt" height="512.000000pt" viewBox="0 0 512.000000 512.000000"
 preserveAspectRatio="xMidYMid meet">

<g transform="translate(0.000000,512.000000) scale(0.100000,-0.100000)"
fill="#000000" stroke="none">
<path d="M2674 4999 c-49 -14 -125 -69 -161 -117 -42 -56 -63 -128 -63 -219
l0 -73 -271 0 c-303 0 -324 -4 -353 -65 -20 -41 -20 -49 0 -90 32 -69 -50 -65
1297 -65 1092 0 1217 -2 1231 -16 14 -13 16 -52 16 -271 0 -286 4 -309 65
-337 41 -20 49 -20 90 0 63 30 67 50 59 351 -6 293 -13 333 -64 395 -17 20
-56 49 -88 65 l-57 28 -641 3 -641 3 -5 93 c-6 112 -29 168 -98 237 -77 77
-209 109 -316 78z m153 -219 c36 -22 53 -67 53 -142 l0 -48 -110 0 -110 0 0
60 c0 70 18 113 58 134 37 21 71 20 109 -4z"/>
<path d="M1163 4580 c-48 -11 -119 -56 -147 -93 -59 -77 -56 -34 -56 -932 l0
-827 29 -29 c41 -41 98 -41 143 0 l33 29 5 809 c3 444 9 814 13 821 6 9 50 12
163 12 111 0 164 4 189 14 35 15 65 59 65 96 0 37 -30 81 -65 96 -37 15 -312
19 -372 4z"/>
<path d="M2315 3943 c-11 -3 -104 -89 -207 -191 l-188 -187 -67 66 c-88 85
-109 99 -156 99 -58 0 -97 -43 -97 -105 0 -46 1 -48 118 -167 127 -131 152
-148 209 -148 35 0 49 12 266 228 226 224 257 261 257 302 0 37 -30 81 -65 96
-36 15 -37 15 -70 7z"/>
<path d="M2723 3934 c-29 -15 -63 -65 -63 -94 0 -7 7 -27 16 -45 31 -66 22
-65 623 -65 582 0 589 1 625 51 9 13 16 39 16 59 0 20 -7 46 -16 59 -36 50
-43 51 -626 51 -473 0 -547 -2 -575 -16z"/>
<path d="M2718 3504 c-65 -35 -73 -121 -17 -168 l31 -26 358 0 c358 0 359 0
385 23 53 46 49 133 -8 167 -30 19 -52 20 -377 20 -286 -1 -350 -3 -372 -16z"/>
<path d="M4465 3506 c-22 -7 -52 -20 -66 -29 -13 -9 -503 -498 -1087 -1086
l-1062 -1069 0 -256 0 -256 29 -32 29 -33 229 -3 c125 -2 243 0 261 3 28 5
173 146 860 837 l826 830 23 -27 c13 -14 23 -33 23 -42 0 -9 -107 -125 -239
-257 -216 -218 -240 -246 -256 -295 -21 -63 -16 -149 10 -202 25 -49 174 -197
206 -204 39 -9 95 18 113 54 32 60 21 87 -70 183 -35 36 -64 74 -64 84 0 10
106 125 239 258 217 219 240 246 256 295 30 92 8 188 -61 270 l-26 32 164 167
c92 94 172 185 183 207 29 62 32 160 5 222 -32 76 -285 323 -354 346 -58 20
-115 21 -171 3z m212 -308 c63 -62 116 -123 119 -135 5 -19 -35 -65 -252 -288
-141 -146 -262 -265 -268 -265 -6 0 -72 61 -146 135 l-135 135 265 265 c158
157 273 265 284 265 11 0 70 -50 133 -112z m-687 -713 l135 -135 -695 -695
-695 -695 -137 0 -138 0 0 137 0 138 688 691 c378 380 692 692 697 692 6 1 71
-59 145 -133z"/>
<path d="M2285 2862 c-16 -11 -106 -97 -200 -191 l-170 -171 -75 75 c-41 40
-87 79 -102 84 -68 25 -138 -27 -138 -101 0 -40 6 -47 132 -175 136 -137 171
-159 218 -137 33 15 480 464 491 492 35 92 -73 177 -156 124z"/>
<path d="M2718 2864 c-65 -35 -73 -121 -17 -168 l31 -26 252 0 c239 0 255 1
279 20 38 30 52 80 33 123 -26 63 -45 67 -313 67 -191 -1 -243 -4 -265 -16z"/>
<path d="M880 2430 c-41 -11 -113 -39 -160 -62 -69 -34 -103 -61 -181 -138
-84 -83 -102 -108 -142 -190 -62 -129 -81 -221 -75 -368 4 -97 10 -132 35
-205 35 -99 78 -175 140 -246 24 -27 43 -51 43 -54 0 -3 -17 -8 -37 -12 -123
-22 -280 -149 -341 -275 -52 -105 -64 -188 -60 -395 3 -172 5 -182 30 -231 30
-57 73 -98 133 -125 38 -17 86 -19 795 -19 l755 0 50 24 c60 29 107 76 134
136 18 40 21 66 21 244 0 222 -9 279 -63 381 -62 117 -199 225 -325 258 l-50
13 46 56 c214 259 240 588 71 876 -48 79 -171 200 -255 250 -121 70 -208 94
-359 99 -106 2 -144 0 -205 -17z m360 -222 c218 -79 351 -271 351 -503 0 -189
-91 -351 -256 -454 -107 -68 -286 -94 -405 -61 -235 65 -400 280 -400 518 1
238 174 458 408 517 82 21 219 13 302 -17z m387 -1280 c70 -37 120 -89 152
-157 24 -53 26 -66 29 -234 4 -223 8 -217 -119 -217 l-87 0 -4 179 -3 180 -29
30 c-37 39 -75 47 -120 26 -58 -27 -66 -59 -66 -249 l0 -166 -320 0 -320 0 0
179 c0 201 -5 218 -75 241 -30 10 -41 9 -72 -7 -58 -28 -63 -46 -63 -240 l0
-173 -88 0 c-131 0 -124 -12 -120 220 3 189 4 197 30 246 26 50 85 111 130
135 68 37 93 38 598 36 l495 -2 52 -27z"/>
<path d="M2701 2424 c-74 -62 -27 -184 71 -184 40 0 86 36 97 76 28 102 -87
176 -168 108z"/>
<path d="M4421 1154 c-48 -34 -51 -57 -51 -442 0 -334 -1 -360 -18 -375 -17
-15 -109 -17 -1034 -19 l-1016 -3 -26 -24 c-51 -48 -40 -142 20 -170 18 -8
316 -11 1052 -11 l1027 0 50 24 c61 29 108 76 133 136 18 41 20 80 26 422 6
315 4 383 -8 411 -18 44 -51 67 -96 67 -20 0 -46 -7 -59 -16z"/>
</g>
</svg>
