<?xml version="1.0" standalone="no"?>
<!DOCTYPE svg PUBLIC "-//W3C//DTD SVG 20010904//EN"
 "http://www.w3.org/TR/2001/REC-SVG-20010904/DTD/svg10.dtd">
<svg version="1.0" xmlns="http://www.w3.org/2000/svg"
 width="512.000000pt" height="512.000000pt" viewBox="0 0 512.000000 512.000000"
 preserveAspectRatio="xMidYMid meet">

<g transform="translate(0.000000,512.000000) scale(0.100000,-0.100000)"
fill="#000000" stroke="none">
<path d="M2676 5104 c-53 -17 -117 -57 -153 -95 -11 -13 -463 -671 -1002
-1461 -755 -1106 -981 -1444 -981 -1467 0 -57 75 -91 118 -53 11 9 291 414
623 900 331 486 607 881 613 879 12 -5 1575 -1064 1589 -1077 6 -5 -1446
-2147 -1679 -2477 -67 -94 -165 -129 -247 -87 -18 9 -328 217 -691 463 -517
350 -664 454 -685 485 -21 32 -26 51 -26 102 l0 63 153 225 c89 131 152 234
152 248 0 49 -53 88 -101 73 -22 -7 -299 -410 -332 -482 -16 -36 -21 -68 -22
-128 0 -71 4 -88 32 -145 17 -36 47 -79 65 -96 45 -43 1341 -921 1398 -948 69
-32 196 -30 270 5 30 14 69 38 86 52 18 15 90 111 160 214 94 137 152 211 215
273 297 290 2299 2343 2300 2357 4 53 -29 93 -75 93 -27 0 -52 -21 -188 -162
l-157 -163 -136 136 -137 136 260 379 c142 208 266 393 274 409 24 47 39 135
33 190 l-6 50 75 75 76 75 191 -190 c105 -105 196 -201 204 -215 22 -41 27
-94 15 -139 -8 -32 -39 -72 -131 -171 -65 -71 -119 -138 -119 -148 0 -11 9
-31 21 -46 16 -20 29 -26 58 -26 36 0 46 8 153 118 76 78 124 137 141 173 53
109 45 236 -21 333 -20 29 -295 305 -609 612 -659 643 -641 629 -792 629 -121
-1 -164 -22 -276 -135 -49 -50 -93 -90 -98 -90 -5 0 -85 52 -179 115 -94 64
-187 123 -207 131 -54 23 -166 27 -225 8z m175 -152 c20 -9 202 -129 403 -266
243 -165 365 -254 362 -263 -4 -10 -726 -1073 -742 -1092 -3 -4 -873 584 -890
602 -8 9 64 122 283 442 393 576 376 553 426 575 52 24 111 25 158 2z m873
-33 c31 -9 103 -73 378 -341 l339 -331 -57 -58 -57 -58 -56 43 c-31 23 -231
161 -446 305 -214 145 -394 268 -400 272 -13 13 111 137 160 160 46 21 83 23
139 8z m372 -805 c51 -35 103 -77 118 -94 47 -57 55 -133 20 -202 -13 -26
-637 -944 -653 -960 -5 -6 -545 352 -574 381 -7 7 149 240 715 1068 l29 43
127 -87 c70 -47 168 -115 218 -149z m-216 -1651 c-655 -669 -1250 -1272 -1243
-1259 4 6 256 377 561 824 l555 814 126 -126 126 -126 -125 -127z"/>
<path d="M2779 4657 c-22 -17 -410 -586 -423 -620 -22 -58 47 -118 100 -87 14
8 117 150 230 315 218 319 228 341 184 385 -22 22 -67 26 -91 7z"/>
<path d="M2927 4278 c-50 -50 -297 -427 -297 -453 0 -31 41 -75 69 -75 45 0
34 -15 308 388 49 72 53 103 18 137 -30 31 -69 32 -98 3z"/>
<path d="M3763 4050 c-29 -12 -45 -44 -41 -83 3 -28 16 -40 108 -105 58 -40
115 -75 128 -78 48 -13 105 54 85 99 -11 23 -202 160 -238 170 -11 3 -30 2
-42 -3z"/>
<path d="M3591 3814 c-26 -33 -27 -65 -3 -92 31 -35 214 -152 239 -152 33 0
73 42 73 78 0 35 -16 50 -137 131 -105 70 -139 77 -172 35z"/>
<path d="M3453 3608 c-25 -27 -29 -44 -20 -79 8 -32 209 -169 248 -169 57 0
94 61 64 106 -22 33 -219 164 -248 164 -13 0 -33 -10 -44 -22z"/>
<path d="M3325 3408 c-52 -30 -59 -81 -17 -120 32 -30 210 -148 224 -148 24 0
68 33 74 55 13 52 -2 70 -122 149 -64 42 -121 76 -128 76 -6 0 -20 -6 -31 -12z"/>
<path d="M2202 3063 c-34 -30 -605 -877 -610 -903 -2 -16 5 -36 18 -53 29 -37
77 -37 112 1 14 15 154 217 311 448 309 454 313 462 261 503 -33 26 -65 27
-92 4z"/>
<path d="M2541 2833 c-25 -22 -1320 -1918 -1335 -1955 -23 -60 30 -114 91 -92
21 7 86 95 266 359 941 1377 1097 1609 1097 1632 0 31 -42 73 -73 73 -14 0
-34 -8 -46 -17z"/>
<path d="M1009 2025 c-94 -30 -132 -68 -265 -260 -162 -235 -179 -270 -179
-360 1 -56 6 -80 27 -120 97 -187 342 -243 482 -112 56 53 283 385 309 452 25
65 20 172 -12 237 -63 131 -229 206 -362 163z m168 -170 c15 -9 37 -28 47 -42
26 -35 33 -111 13 -150 -31 -59 -240 -359 -265 -380 -56 -47 -141 -42 -202 13
-45 41 -65 90 -55 136 8 36 231 371 275 413 48 46 121 50 187 10z"/>
<path d="M2462 1993 c-12 -10 -222 -313 -468 -673 -313 -457 -449 -665 -452
-688 -8 -61 64 -106 110 -69 13 9 487 697 861 1251 37 54 67 110 67 123 0 31
-42 73 -73 73 -14 0 -34 -8 -45 -17z"/>
</g>
</svg>
