<?xml version="1.0" standalone="no"?>
<!DOCTYPE svg PUBLIC "-//W3C//DTD SVG 20010904//EN"
 "http://www.w3.org/TR/2001/REC-SVG-20010904/DTD/svg10.dtd">
<svg version="1.0" xmlns="http://www.w3.org/2000/svg"
 width="512.000000pt" height="512.000000pt" viewBox="0 0 512.000000 512.000000"
 preserveAspectRatio="xMidYMid meet">

<g transform="translate(0.000000,512.000000) scale(0.100000,-0.100000)"
fill="#000000" stroke="none">
<path d="M575 5108 c-27 -5 -87 -27 -133 -48 -158 -75 -280 -230 -317 -405
-22 -105 -22 -4085 0 -4190 37 -175 159 -331 317 -404 45 -22 110 -44 142 -50
41 -8 421 -11 1190 -11 956 0 1142 3 1201 15 171 36 317 150 393 306 54 109
60 146 32 182 -16 19 -30 27 -54 27 -41 0 -68 -28 -90 -95 -36 -109 -114 -191
-234 -248 l-67 -32 -1180 0 -1180 0 -55 22 c-111 46 -207 142 -253 253 l-22
55 0 2075 0 2075 22 55 c46 111 143 208 253 252 48 19 78 22 252 26 223 4 197
15 218 -93 17 -81 51 -146 101 -188 72 -62 101 -67 386 -67 160 0 262 4 274
11 48 25 44 105 -7 128 -16 7 -108 11 -267 11 -222 0 -245 2 -274 20 -39 23
-49 41 -67 119 l-14 61 630 0 630 0 -7 -32 c-17 -81 -27 -106 -55 -133 -31
-30 -32 -30 -175 -35 -122 -4 -146 -8 -164 -24 -29 -26 -28 -79 2 -106 21 -20
31 -21 177 -18 137 3 160 6 196 25 90 48 141 127 164 256 l12 67 177 0 c186 0
240 -9 321 -50 89 -45 165 -127 203 -220 22 -55 22 -57 27 -783 l5 -729 29
-25 c31 -27 66 -25 98 4 17 15 18 63 18 732 0 603 -3 726 -15 780 -37 153
-154 303 -295 374 -138 69 -88 67 -1355 66 -675 -1 -1160 -5 -1190 -11z"/>
<path d="M853 4034 c-61 -22 -137 -95 -170 -162 l-28 -57 -3 -331 -3 -331 24
-28 c30 -35 83 -37 109 -4 16 19 18 50 18 333 0 303 1 313 23 356 12 25 37 55
56 68 l34 22 883 -2 883 -3 31 -30 c41 -39 60 -76 60 -118 0 -76 81 -116 131
-64 18 19 20 31 16 84 -8 107 -72 203 -169 255 l-43 23 -905 2 c-784 1 -911 0
-947 -13z"/>
<path d="M1673 3765 c-236 -64 -389 -303 -341 -530 8 -38 23 -91 33 -117 l19
-46 -37 -41 c-125 -138 -177 -293 -177 -528 l0 -73 -107 0 c-155 1 -207 23
-244 105 -15 33 -19 66 -19 188 0 82 -4 157 -10 167 -13 24 -59 39 -87 29 -49
-18 -55 -45 -52 -226 4 -160 5 -171 32 -225 34 -68 108 -139 175 -164 44 -18
100 -19 847 -22 538 -2 812 0 836 7 23 7 40 20 47 36 17 36 15 48 -9 79 -19
24 -26 26 -98 26 l-78 0 -5 143 c-4 120 -9 154 -32 220 -28 83 -74 162 -137
238 l-39 45 26 65 c35 85 43 199 20 289 -63 245 -323 399 -563 335z m223 -156
c32 -12 77 -40 102 -62 162 -150 123 -416 -76 -514 -48 -24 -69 -28 -137 -28
-72 0 -87 4 -143 34 -109 59 -166 153 -167 277 0 62 4 80 35 140 75 146 234
210 386 153z m-356 -684 c73 -49 148 -70 250 -69 97 0 158 17 245 69 l57 35
26 -32 c99 -115 123 -185 130 -361 l5 -137 -464 2 -464 3 -3 70 c-5 105 14
220 47 290 24 51 103 165 115 165 2 0 27 -16 56 -35z"/>
<path d="M2677 3496 c-106 -39 -177 -142 -177 -255 0 -66 144 -530 172 -553
44 -38 118 -5 118 53 0 13 -31 125 -70 249 -38 124 -70 238 -70 253 0 133 187
161 234 35 9 -23 86 -268 171 -543 163 -526 167 -535 224 -535 33 0 71 37 71
69 0 12 -29 116 -65 232 -36 115 -65 216 -65 225 0 31 33 85 61 99 46 25 104
19 140 -13 26 -23 40 -58 99 -247 42 -133 76 -225 87 -232 30 -23 79 -16 102
13 12 15 21 32 21 38 0 6 -25 91 -55 189 -30 98 -55 185 -55 194 0 30 33 84
61 98 46 25 104 19 139 -13 26 -23 40 -55 86 -202 68 -217 99 -254 168 -199
35 28 34 59 -9 194 -51 160 -45 214 25 250 55 28 129 11 159 -37 19 -31 309
-974 333 -1083 17 -81 22 -137 23 -290 l2 -190 128 -410 c70 -226 132 -418
137 -428 25 -48 106 -40 128 13 11 26 -1 72 -119 450 l-131 422 6 101 c7 107
-6 258 -31 380 -25 120 -322 1065 -350 1112 -48 83 -146 131 -249 123 -69 -6
-116 -26 -163 -70 l-31 -30 -34 24 c-46 35 -91 48 -162 48 -70 0 -124 -21
-179 -70 l-37 -32 -27 20 c-86 59 -230 55 -311 -9 l-27 -20 -16 53 c-10 29
-42 132 -73 228 -61 192 -83 230 -163 277 -55 32 -166 42 -226 19z"/>
<path d="M2760 2490 c-11 -11 -20 -31 -20 -45 0 -14 34 -134 75 -267 42 -132
74 -242 73 -244 -2 -1 -69 35 -148 82 -146 84 -217 114 -275 114 -101 0 -213
-75 -255 -172 -46 -105 -22 -234 58 -310 65 -62 761 -609 819 -644 73 -44 159
-72 263 -85 46 -5 86 -12 88 -13 1 -2 61 -192 133 -422 71 -230 136 -429 145
-441 11 -17 24 -23 53 -23 38 0 61 16 74 53 6 15 -259 892 -283 936 -22 43
-46 52 -143 56 -101 5 -173 24 -252 68 -62 35 -803 624 -817 650 -18 35 -14
104 9 135 28 39 81 64 123 59 21 -3 119 -53 244 -126 116 -67 222 -125 237
-128 39 -7 88 22 105 63 17 42 26 8 -100 413 -47 150 -93 282 -102 292 -23 25
-78 25 -104 -1z"/>
<path d="M887 1879 c-133 -21 -226 -133 -227 -274 0 -189 173 -323 352 -271
201 58 272 299 133 454 -67 75 -158 107 -258 91z m121 -166 c66 -41 80 -138
27 -193 -59 -62 -133 -64 -192 -5 -28 28 -33 40 -33 79 0 54 21 100 52 117 56
30 101 31 146 2z"/>
<path d="M1443 1880 c-32 -13 -56 -54 -48 -82 18 -59 13 -58 321 -58 278 0
284 0 304 22 37 40 22 98 -31 117 -38 13 -513 14 -546 1z"/>
<path d="M1427 1459 c-46 -27 -41 -105 9 -128 17 -7 148 -11 420 -11 l395 0
24 25 c32 31 33 74 2 103 -23 22 -26 22 -428 22 -263 -1 -410 -4 -422 -11z"/>
<path d="M849 1015 c-64 -21 -141 -92 -169 -157 -19 -44 -22 -65 -18 -130 5
-91 37 -152 106 -205 115 -87 283 -69 380 42 123 139 79 350 -90 436 -52 26
-150 33 -209 14z m150 -153 c62 -33 87 -111 56 -172 -24 -46 -62 -70 -112 -70
-85 0 -133 48 -133 132 0 50 19 81 64 109 39 24 82 24 125 1z"/>
<path d="M1432 1023 c-21 -8 -43 -61 -36 -88 14 -57 -8 -55 705 -55 627 0 658
1 680 19 32 26 32 86 0 112 -22 18 -53 19 -680 18 -361 0 -662 -3 -669 -6z"/>
<path d="M1415 590 c-10 -11 -18 -34 -18 -50 0 -16 8 -39 18 -50 18 -20 29
-20 686 -20 l668 0 20 26 c26 34 26 54 0 88 l-20 26 -668 0 c-657 0 -668 0
-686 -20z"/>
</g>
</svg>
