<?xml version="1.0" standalone="no"?>
<!DOCTYPE svg PUBLIC "-//W3C//DTD SVG 20010904//EN"
 "http://www.w3.org/TR/2001/REC-SVG-20010904/DTD/svg10.dtd">
<svg version="1.0" xmlns="http://www.w3.org/2000/svg"
 width="512.000000pt" height="512.000000pt" viewBox="0 0 512.000000 512.000000"
 preserveAspectRatio="xMidYMid meet">

<g transform="translate(0.000000,512.000000) scale(0.100000,-0.100000)"
fill="#000000" stroke="none">
<path d="M1469 4496 c-13 -14 -224 -377 -468 -807 -314 -552 -444 -791 -444
-812 0 -20 8 -38 27 -54 l27 -23 915 0 915 0 24 25 c14 13 25 36 25 51 0 33
-903 1619 -930 1634 -31 17 -66 11 -91 -14z m428 -878 l371 -653 -374 -3
c-206 -1 -542 -1 -747 0 l-374 3 371 653 c203 358 373 652 376 652 3 0 173
-294 377 -652z"/>
<path d="M3125 4391 c-90 -23 -173 -90 -215 -176 l-25 -50 0 -565 0 -565 23
-45 c35 -72 75 -114 144 -151 l63 -34 565 0 565 0 51 27 c76 40 107 70 145
140 l34 63 0 565 0 565 -34 63 c-37 69 -79 109 -151 144 -45 23 -46 23 -590
25 -300 1 -558 -2 -575 -6z m1121 -177 c15 -11 37 -33 48 -48 21 -27 21 -38
21 -566 0 -528 0 -539 -21 -566 -11 -15 -33 -37 -48 -48 -27 -21 -38 -21 -566
-21 -528 0 -539 0 -566 21 -15 11 -37 33 -48 48 -20 27 -21 40 -24 539 -2 282
0 526 3 544 7 40 49 91 90 109 24 11 134 13 557 11 514 -2 527 -2 554 -23z"/>
<path d="M3622 2459 c-89 -17 -131 -53 -485 -407 -391 -392 -400 -404 -400
-532 0 -128 9 -140 401 -533 396 -397 413 -410 542 -410 129 0 146 13 542 410
392 394 400 403 400 533 0 130 -8 139 -400 533 -296 297 -356 352 -407 377
-68 32 -130 42 -193 29z m126 -173 c15 -8 178 -167 364 -353 355 -357 361
-365 350 -443 -4 -30 -52 -83 -361 -391 -379 -379 -370 -372 -453 -361 -28 3
-92 63 -389 361 -309 308 -357 361 -361 391 -11 78 -5 87 345 439 183 183 346
342 362 352 36 23 105 25 143 5z"/>
<path d="M1405 2393 c-60 -8 -181 -42 -239 -68 -417 -185 -623 -656 -476
-1092 82 -246 297 -461 543 -543 558 -188 1130 198 1164 785 25 438 -289 834
-722 910 -81 14 -198 17 -270 8z m247 -167 c102 -20 175 -49 260 -105 145 -95
259 -252 305 -421 28 -103 24 -292 -9 -392 -39 -119 -92 -204 -182 -294 -90
-90 -175 -143 -294 -182 -100 -33 -289 -37 -392 -9 -169 46 -326 160 -421 305
-148 226 -156 520 -22 752 47 80 178 213 256 259 152 89 328 120 499 87z"/>
</g>
</svg>
