<svg id="User_Image" data-name="User Image" xmlns="http://www.w3.org/2000/svg" width="50" height="50" viewBox="0 0 50 50">
  <circle id="Ellipse_46" data-name="Ellipse 46" cx="25" cy="25" r="25" fill="#603881"/>
  <path id="Icon_awesome-user-alt" data-name="Icon awesome-user-alt" d="M12.2,14.115A6.963,6.963,0,0,0,19.06,7.058,6.963,6.963,0,0,0,12.2,0,6.963,6.963,0,0,0,5.337,7.058,6.963,6.963,0,0,0,12.2,14.115Zm6.1,1.568H15.672a8.086,8.086,0,0,1-6.947,0H6.1A6.188,6.188,0,0,0,0,21.957v.784a2.321,2.321,0,0,0,2.287,2.353H22.109A2.321,2.321,0,0,0,24.4,22.741v-.784A6.188,6.188,0,0,0,18.3,15.684Z" transform="translate(12.802 12.453)" fill="#fff"/>
</svg>
