<?xml version="1.0" standalone="no"?>
<!DOCTYPE svg PUBLIC "-//W3C//DTD SVG 20010904//EN"
 "http://www.w3.org/TR/2001/REC-SVG-20010904/DTD/svg10.dtd">
<svg version="1.0" xmlns="http://www.w3.org/2000/svg"
 width="512.000000pt" height="512.000000pt" viewBox="0 0 512.000000 512.000000"
 preserveAspectRatio="xMidYMid meet">

<g transform="translate(0.000000,512.000000) scale(0.100000,-0.100000)"
fill="#000000" stroke="none">
<path d="M2200 4979 c-836 -59 -1545 -531 -1918 -1275 -160 -320 -235 -644
-235 -1014 0 -277 30 -468 114 -725 162 -492 488 -916 926 -1202 169 -111 451
-243 518 -243 38 0 65 26 65 64 0 46 -17 63 -92 91 -120 45 -306 142 -423 220
-105 70 -274 204 -323 258 l-23 24 108 48 c111 49 340 128 404 140 l36 7 38
-97 c81 -205 212 -430 320 -552 39 -45 52 -53 81 -53 21 0 42 8 54 20 34 34
25 68 -41 150 -109 136 -224 340 -287 512 l-21 56 112 20 c62 12 135 24 162
27 86 11 124 76 74 126 -20 20 -29 21 -98 16 -42 -3 -125 -16 -185 -27 -59
-12 -110 -19 -113 -16 -10 9 -63 223 -87 346 -38 193 -75 527 -76 687 l0 22
271 3 271 3 19 24 c26 32 24 67 -6 96 l-24 25 -267 0 -266 0 7 118 c15 275 54
551 111 777 34 138 44 165 58 165 7 0 79 -11 160 -25 182 -31 197 -31 224 -2
34 36 25 96 -15 112 -10 3 -85 18 -168 31 -82 14 -153 28 -157 32 -9 9 63 180
125 296 153 288 342 477 545 545 100 34 92 50 92 -188 l0 -210 26 -20 c15 -12
34 -21 44 -21 10 0 29 9 44 21 l26 20 0 210 c0 240 -9 224 103 185 140 -50
297 -180 410 -342 37 -53 66 -84 81 -88 49 -12 96 23 96 72 0 26 -105 172
-184 255 -35 37 -60 67 -55 67 5 0 64 -18 132 -41 167 -55 375 -159 538 -268
75 -50 142 -91 147 -91 50 0 86 54 70 102 -22 63 -403 284 -643 373 -277 103
-622 154 -905 134z m-393 -229 c-39 -31 -147 -164 -211 -260 -69 -103 -151
-262 -201 -390 -21 -52 -39 -96 -40 -98 -6 -7 -233 64 -345 108 -89 35 -190
82 -190 90 0 10 105 108 185 172 177 141 434 281 645 351 117 39 137 44 164
46 16 1 15 -2 -7 -19z m-1029 -699 c90 -45 276 -117 407 -156 65 -20 120 -37
122 -38 1 -2 -9 -41 -23 -87 -63 -220 -120 -583 -132 -853 l-7 -152 -477 -3
c-464 -2 -478 -2 -478 17 0 10 5 65 10 122 34 334 159 688 339 959 82 124 157
220 171 220 6 0 36 -13 68 -29z m375 -1593 c11 -273 54 -556 122 -813 18 -72
33 -130 32 -131 -1 -1 -51 -16 -112 -33 -139 -41 -274 -91 -394 -147 -52 -24
-95 -44 -96 -44 -1 0 -29 35 -62 78 -261 336 -413 732 -448 1160 l-7 82 479 0
480 0 6 -152z"/>
<path d="M2049 4181 l-24 -19 0 -1904 0 -1903 30 -54 c36 -66 89 -106 158
-121 36 -7 457 -10 1362 -8 l1310 3 44 23 c54 29 88 65 112 117 16 35 19 67
19 242 l0 202 -26 20 c-24 19 -40 21 -165 21 l-139 0 0 1674 0 1673 -21 27
-20 26 -1309 0 c-1273 0 -1308 -1 -1331 -19z m2531 -1756 l0 -1625 -1084 0
c-1073 0 -1084 0 -1109 -20 l-26 -21 -3 -195 -3 -196 -28 -24 c-40 -34 -90
-32 -128 5 l-29 29 0 1836 0 1836 1205 0 1205 0 0 -1625z m340 -1900 c0 -139
-11 -178 -56 -195 -16 -6 -477 -10 -1201 -10 l-1175 0 6 23 c3 12 6 86 6 165
l0 142 1210 0 1210 0 0 -125z"/>
<path d="M3422 3626 c-90 -30 -133 -82 -134 -166 0 -95 49 -143 184 -180 150
-40 177 -57 163 -102 -16 -47 -133 -65 -193 -28 -18 11 -37 32 -43 47 -23 57
-24 58 -70 54 -59 -4 -71 -15 -63 -60 14 -82 74 -148 156 -172 52 -15 171 -12
214 6 81 34 124 95 124 177 0 94 -57 152 -180 183 -120 30 -159 45 -166 67
-11 37 27 62 95 63 67 0 96 -18 109 -69 9 -34 31 -42 89 -31 41 7 48 21 33 73
-13 52 -51 97 -102 123 -52 26 -159 34 -216 15z"/>
<path d="M2402 3617 c-9 -11 13 -76 98 -297 61 -156 115 -289 121 -297 12 -14
86 -18 105 -5 18 11 237 580 230 597 -4 13 -18 15 -63 13 l-57 -3 -71 -190
c-39 -104 -74 -199 -78 -209 -4 -10 -10 -17 -13 -14 -3 3 -38 97 -78 209 l-73
204 -55 3 c-37 2 -58 -1 -66 -11z"/>
<path d="M3042 3618 c-9 -9 -12 -83 -12 -294 0 -244 2 -285 16 -298 16 -17 80
-21 102 -8 9 7 12 75 10 308 l-3 299 -50 3 c-30 2 -55 -2 -63 -10z"/>
<path d="M4023 3618 c-15 -17 -223 -561 -223 -580 0 -19 21 -28 65 -28 54 0
62 8 91 91 l28 80 100 -3 100 -3 29 -75 c15 -41 33 -78 40 -82 20 -12 92 -9
111 5 17 12 11 32 -102 308 l-120 294 -55 3 c-35 2 -57 -2 -64 -10z m86 -244
c11 -31 21 -60 21 -65 0 -5 -23 -9 -51 -9 -37 0 -50 4 -46 13 2 6 13 36 23 65
10 28 22 52 25 52 3 0 16 -25 28 -56z"/>
<path d="M2520 2500 c-11 -11 -20 -33 -20 -50 0 -17 9 -39 20 -50 20 -20 33
-20 875 -20 842 0 855 0 875 20 26 26 26 74 0 100 -20 20 -33 20 -875 20 -842
0 -855 0 -875 -20z"/>
<path d="M2522 2127 c-27 -29 -28 -67 -3 -98 l19 -24 857 0 857 0 19 24 c26
32 24 73 -4 99 l-23 22 -850 0 -851 0 -21 -23z"/>
<path d="M2526 1759 c-19 -15 -26 -30 -26 -54 0 -24 7 -39 26 -54 26 -20 38
-21 389 -21 351 0 363 1 389 21 19 15 26 30 26 54 0 24 -7 39 -26 54 -26 20
-38 21 -389 21 -351 0 -363 -1 -389 -21z"/>
<path d="M4255 1648 c-11 -6 -41 -31 -67 -56 l-47 -45 -58 31 c-284 151 -614
-94 -549 -407 26 -122 100 -216 214 -269 50 -24 70 -27 157 -27 88 0 107 3
157 27 146 68 261 271 188 330 -12 10 -34 18 -49 18 -28 0 -71 -36 -71 -59 0
-6 -7 -26 -16 -44 -51 -101 -162 -153 -269 -126 -67 17 -148 95 -165 159 -49
182 121 344 299 285 28 -9 51 -20 51 -24 0 -3 -28 -35 -63 -69 l-63 -62 -37
19 c-47 24 -93 12 -108 -27 -16 -41 -4 -66 57 -121 91 -84 83 -88 332 162 230
232 237 242 187 292 -26 27 -49 31 -80 13z"/>
</g>
</svg>
