<?xml version="1.0" standalone="no"?>
<!DOCTYPE svg PUBLIC "-//W3C//DTD SVG 20010904//EN"
 "http://www.w3.org/TR/2001/REC-SVG-20010904/DTD/svg10.dtd">
<svg version="1.0" xmlns="http://www.w3.org/2000/svg"
 width="512.000000pt" height="512.000000pt" viewBox="0 0 512.000000 512.000000"
 preserveAspectRatio="xMidYMid meet">

<g transform="translate(0.000000,512.000000) scale(0.100000,-0.100000)"
fill="#000000" stroke="none">
<path d="M2375 3826 c-276 -65 -499 -243 -617 -492 -171 -365 -67 -814 250
-1065 90 -73 225 -140 337 -170 113 -30 317 -30 430 0 597 159 860 852 516
1360 -104 152 -280 284 -461 343 -86 28 -109 31 -245 34 -104 3 -168 -1 -210
-10z m1 -434 c164 -113 491 -347 513 -366 13 -12 27 -31 32 -43 20 -53 1 -71
-309 -290 -163 -115 -305 -213 -315 -216 -10 -4 -33 0 -52 7 -55 23 -57 42
-53 498 l3 406 24 26 c37 40 75 34 157 -22z"/>
<path d="M2505 1031 c-68 -17 -143 -78 -160 -130 l-6 -21 -1059 0 -1059 0 -27
-23 c-35 -30 -37 -79 -5 -110 l22 -22 1062 -3 1062 -3 27 -44 c39 -64 96 -98
173 -103 35 -2 80 1 100 8 44 14 110 71 131 112 l14 28 1060 2 c1044 3 1060 3
1079 23 11 11 23 32 26 47 6 22 1 33 -23 58 l-30 30 -1055 0 -1055 0 -25 43
c-51 86 -156 131 -252 108z"/>
</g>
</svg>
